<?xml version="1.0" encoding="utf-8"?>
<!-- Generator: Adobe Illustrator 24.3.0, SVG Export Plug-In . SVG Version: 6.00 Build 0)  -->
<svg version="1.1" id="Layer_1" xmlns="http://www.w3.org/2000/svg" xmlns:xlink="http://www.w3.org/1999/xlink" x="0px" y="0px"
	 viewBox="0 0 24 18.5" style="enable-background:new 0 0 24 18.5;" xml:space="preserve">
<style type="text/css">
	.st0{fill:#FFFFFF;}
</style>
<g id="solar:arrow-up-broken">
	<g id="Vector">
		<path class="st0" d="M14.7,18.5c-0.3,0-0.5-0.1-0.7-0.3c-0.4-0.4-0.4-1.1,0-1.5l6.5-6.5H8.6c-0.6,0-1-0.5-1-1c0-0.6,0.5-1,1-1
			h11.9L14,1.8c-0.4-0.4-0.4-1.1,0-1.5s1.1-0.4,1.5,0l8.2,8.2c0.1,0.1,0.2,0.2,0.2,0.3C24,9,24,9.1,24,9.3s0,0.3-0.1,0.4
			c-0.1,0.1-0.1,0.2-0.2,0.3l-8.2,8.2C15.3,18.4,15,18.5,14.7,18.5z M4.5,10.3H1c-0.6,0-1-0.5-1-1c0-0.6,0.5-1,1-1h3.4
			c0.6,0,1,0.5,1,1C5.5,9.8,5,10.3,4.5,10.3z"/>
	</g>
</g>
</svg>
