<?xml version="1.0" encoding="utf-8"?>
<!-- Generator: Adobe Illustrator 24.3.0, SVG Export Plug-In . SVG Version: 6.00 Build 0)  -->
<svg version="1.1" id="Layer_1" xmlns="http://www.w3.org/2000/svg" xmlns:xlink="http://www.w3.org/1999/xlink" x="0px" y="0px"
	 viewBox="0 0 20 20" style="enable-background:new 0 0 20 20;" xml:space="preserve">
<path d="M19,16.3l0.5,0.5L19,16.3L19,16.3z M6,14.1l0.5-0.5L6,14.1L6,14.1z M1.8,3.2L1.3,2.7L1.8,3.2L1.8,3.2z M14.1,13.2l0.5-0.5
	l-1.1-1.1L13,12.1L14.1,13.2z M16.1,12.6l2,1.1l0.7-1.4l-2-1.1L16.1,12.6z M18.4,15.8L17,17.2l1.1,1.1l1.5-1.4L18.4,15.8z
	 M16.1,17.7c-1.5,0.1-5.3,0-9.5-4.1l-1.1,1.1c4.5,4.5,8.9,4.7,10.7,4.6L16.1,17.7L16.1,17.7z M6.6,13.5C2.6,9.6,2,6.3,1.9,4.8
	L0.3,4.9c0.1,1.8,0.9,5.5,5.2,9.7L6.6,13.5z M8,7.2l0.3-0.3L7.2,5.8L6.9,6.1L8,7.2L8,7.2z M8.5,3.2L7.2,1.5L6,2.4l1.3,1.7L8.5,3.2z
	 M2.9,1.1L1.3,2.7l1.1,1.1L4,2.2L2.9,1.1z M7.5,6.7C6.9,6.1,6.9,6.1,6.9,6.1h0l0,0c0,0-0.1,0.1-0.1,0.2C6.7,6.4,6.7,6.5,6.6,6.6
	C6.5,7,6.5,7.3,6.5,7.7c0.1,0.9,0.7,2.1,2.3,3.6l1.1-1.1C8.5,8.8,8.1,7.9,8,7.5c0-0.2,0-0.3,0-0.3c0,0,0,0,0,0c0,0,0,0,0,0l0,0
	c0,0,0,0,0,0L7.5,6.7L7.5,6.7z M8.8,11.3c1.6,1.6,2.7,2.2,3.6,2.3c0.5,0.1,0.8,0,1.1-0.1c0.2-0.1,0.3-0.1,0.4-0.2c0,0,0,0,0.1,0l0,0
	l0,0l0,0c0,0,0,0-0.5-0.5C13,12.1,13,12.1,13,12.1l0,0l0,0l0,0l0,0c0,0,0,0,0,0c0,0,0,0,0,0c0,0-0.1,0-0.3,0
	c-0.4-0.1-1.3-0.4-2.8-1.9L8.8,11.3z M7.2,1.5c-1-1.4-3.1-1.6-4.3-0.4L4,2.2c0.5-0.5,1.5-0.5,2,0.2L7.2,1.5L7.2,1.5z M1.9,4.8
	c0-0.4,0.1-0.7,0.5-1.1L1.3,2.7C0.7,3.2,0.3,4,0.3,4.9L1.9,4.8z M17,17.2c-0.3,0.3-0.6,0.4-0.9,0.5l0.1,1.5c0.8-0.1,1.4-0.5,1.8-0.9
	L17,17.2z M8.3,6.9c1-1,1.1-2.6,0.2-3.7L7.3,4.1c0.4,0.6,0.4,1.3-0.1,1.7L8.3,6.9z M18.1,13.6c0.8,0.5,1,1.5,0.4,2.1l1.1,1.1
	c1.4-1.4,1-3.6-0.7-4.6L18.1,13.6z M14.5,12.8c0.4-0.4,1-0.5,1.6-0.2l0.7-1.4c-1.1-0.6-2.5-0.4-3.4,0.5L14.5,12.8z"/>
</svg>
