<?xml version="1.0" encoding="utf-8"?>
<!-- Generator: Adobe Illustrator 24.3.0, SVG Export Plug-In . SVG Version: 6.00 Build 0)  -->
<svg version="1.1" id="chat" xmlns="http://www.w3.org/2000/svg" xmlns:xlink="http://www.w3.org/1999/xlink" x="0px" y="0px"
	 viewBox="0 0 64 48.6" style="enable-background:new 0 0 64 48.6;" xml:space="preserve">
<style type="text/css">
	.st0{fill:#FFFFFF;}
</style>
<path class="st0" d="M48.6,7.7h-4.3c1.2,2.4,1.8,5,1.8,7.7V18c0,9.9-8,17.9-17.9,17.9h-3.7c2.9,3.3,7.1,5.1,11.4,5.1h6.4l10.2,7.7
	L48.6,41C57.1,41,64,34.1,64,25.6V23C64,14.6,57.1,7.7,48.6,7.7z"/>
<path class="st0" d="M21.8,33.3h6.4c8.5,0,15.4-6.9,15.4-15.4v-2.6C43.5,6.9,36.6,0,28.2,0H15.4C6.9,0,0,6.9,0,15.4V18
	c0,8.5,6.9,15.4,15.4,15.4L11.5,41L21.8,33.3z M30.7,15.4h2.6c0.7,0,1.3,0.6,1.3,1.3c0,0.7-0.6,1.3-1.3,1.3h-2.6
	c-0.7,0-1.3-0.6-1.3-1.3C29.4,15.9,30,15.4,30.7,15.4z M20.5,15.4H23c0.7,0,1.3,0.6,1.3,1.3c0,0.7-0.6,1.3-1.3,1.3h-2.6
	c-0.7,0-1.3-0.6-1.3-1.3C19.2,15.9,19.8,15.4,20.5,15.4z M12.8,17.9h-2.6c-0.7,0-1.3-0.6-1.3-1.3c0-0.7,0.6-1.3,1.3-1.3h2.6
	c0.7,0,1.3,0.6,1.3,1.3C14.1,17.3,13.5,17.9,12.8,17.9z"/>
</svg>
