<svg width="14" height="14" viewBox="0 0 14 14" fill="none" xmlns="http://www.w3.org/2000/svg">
<path d="M13.6268 2.12272C13.7435 2.00978 13.8366 1.87466 13.9006 1.72524C13.9647 1.57583 13.9985 1.41511 13.9999 1.25247C14.0014 1.08983 13.9706 0.928515 13.9093 0.777949C13.848 0.627382 13.7574 0.490575 13.6428 0.375511C13.5282 0.260446 13.3919 0.169428 13.2418 0.107767C13.0918 0.046106 12.931 0.0150376 12.7689 0.0163737C12.6068 0.0177098 12.4465 0.051424 12.2975 0.115549C12.1485 0.179675 12.0137 0.272927 11.901 0.389864L7.00691 5.2977L2.11444 0.389864C2.00265 0.269517 1.86784 0.17299 1.71806 0.106041C1.56827 0.0390921 1.40658 0.00309252 1.24262 0.00019063C1.07867 -0.00271126 0.915811 0.027544 0.763764 0.0891509C0.611718 0.150758 0.473599 0.242454 0.357647 0.358771C0.241695 0.475087 0.150286 0.613639 0.0888718 0.766163C0.0274578 0.918686 -0.00270277 1.08206 0.000190033 1.24653C0.00308283 1.411 0.0389697 1.5732 0.105709 1.72345C0.172449 1.87371 0.268673 2.00894 0.388644 2.12108L5.27786 7.03055L0.385388 11.9384C0.169696 12.1706 0.0522707 12.4777 0.0578522 12.7951C0.0634337 13.1124 0.191586 13.4152 0.415309 13.6396C0.639033 13.864 0.94086 13.9926 1.2572 13.9982C1.57355 14.0038 1.87971 13.886 2.11118 13.6696L7.00691 8.76177L11.8994 13.6712C12.1309 13.8876 12.437 14.0054 12.7534 13.9998C13.0697 13.9942 13.3715 13.8657 13.5953 13.6412C13.819 13.4168 13.9471 13.114 13.9527 12.7967C13.9583 12.4794 13.8409 12.1722 13.6252 11.94L8.73597 7.03055L13.6268 2.12272Z" fill="#FF6E00"/>
</svg>
