<svg width="103" height="89" viewBox="0 0 103 89" fill="none" xmlns="http://www.w3.org/2000/svg">
<g id="Contact Us">
<path id="Vector" d="M83.741 45.3879C84.7162 39.8169 86.5987 27.4041 86.5987 27.4041C85.7069 25.0107 85.8591 21.0614 86.6579 21.0905C87.4566 21.1196 88.1953 23.8581 88.1953 23.8581C88.1953 23.8581 90.3754 18.1921 91.1742 18.4819C91.973 18.7718 91.0152 22.2867 90.9861 22.3982C91.0269 22.3013 92.4101 18.9327 93.3252 19.2642C94.2403 19.5958 92.9229 22.9711 92.857 23.1417C92.9346 22.9954 94.2461 20.5244 94.98 20.792C95.7138 21.0595 93.9989 24.4174 93.9553 24.5037C94.0106 24.432 95.1981 22.8664 95.7545 23.102C96.3264 23.3424 92.4082 29.1412 92.4082 29.1412C92.4082 29.1412 90.8572 46.6161 90.2756 48.9649C89.5679 51.8429 88.0189 54.2431 85.0225 54.2431C82.4779 54.2431 79.6638 52.6495 78.0547 51.4746" fill="white"/>
<path id="Vector_2" d="M30.3215 57.9897C29.3463 52.4187 27.4637 40.0059 27.4637 40.0059C28.3556 37.6125 28.2034 33.6633 27.4046 33.6923C26.6059 33.7214 25.8672 36.4599 25.8672 36.4599C25.8672 36.4599 23.6871 30.7939 22.8883 31.0837C22.0895 31.3736 23.0473 34.8885 23.0764 35C23.0356 34.9031 21.6524 31.5345 20.7373 31.866C19.8222 32.1976 21.1396 35.5729 21.2055 35.7435C21.1279 35.5972 19.8164 33.1262 19.0825 33.3938C18.3487 33.6613 20.0636 37.0192 20.1072 37.1055C20.0519 37.0338 18.8644 35.4682 18.308 35.7038C17.7361 35.9442 21.6543 41.743 21.6543 41.743C21.6543 41.743 23.2053 59.2179 23.7869 61.5667C24.4946 64.4448 26.0436 66.8449 29.0399 66.8449C31.5846 66.8449 34.3986 65.2513 36.0078 64.0764" fill="white"/>
<path id="Vector_3" d="M24.1588 40.5169C24.1894 40.5165 24.2195 40.5089 24.2466 40.4947C24.2736 40.4805 24.297 40.46 24.3146 40.4351C24.3323 40.4101 24.3438 40.3813 24.3483 40.3511C24.3527 40.3208 24.3499 40.2899 24.3401 40.261C23.8322 38.7294 25.3715 37.1987 25.387 37.1842C25.4238 37.1482 25.4448 37.0991 25.4453 37.0476C25.4458 36.9962 25.4259 36.9466 25.3899 36.9098C25.3539 36.8731 25.3048 36.8521 25.2534 36.8516C25.2019 36.851 25.1524 36.8709 25.1156 36.9069C24.808 37.2229 24.543 37.5778 24.3275 37.9626C23.8506 38.8108 23.7284 39.6483 23.9717 40.386C23.9851 40.4248 24.0104 40.4584 24.044 40.4819C24.0776 40.5054 24.1178 40.5177 24.1588 40.5169Z" fill="#1F1F1F"/>
<path id="Vector_4" d="M29.0295 67.0369C30.8248 67.0369 32.6753 66.2614 33.9122 65.6041C33.9577 65.5801 33.9918 65.539 34.007 65.4898C34.0222 65.4406 34.0172 65.3874 33.9932 65.3419C33.9691 65.2964 33.928 65.2623 33.8788 65.2472C33.8296 65.232 33.7764 65.2369 33.7309 65.261C32.5328 65.895 30.7453 66.6491 29.0295 66.6491C25.8858 66.6491 24.5403 63.8593 23.9655 61.5182C23.3984 59.2102 21.8532 41.8991 21.8377 41.7236C21.8346 41.6909 21.8233 41.6596 21.8047 41.6325C20.1568 39.1926 18.4924 36.4415 18.4352 35.8696C18.7105 35.8754 19.3416 36.4357 19.9406 37.217C19.9699 37.256 20.0128 37.2826 20.0607 37.2914C20.1087 37.3002 20.1582 37.2906 20.1995 37.2645C20.2401 37.239 20.2699 37.1993 20.2829 37.1531C20.296 37.1069 20.2915 37.0575 20.2702 37.0144C19.5655 35.6418 18.9402 34.0365 19.107 33.6216C19.1215 33.5848 19.1341 33.5799 19.1419 33.577C19.4656 33.4597 20.2935 34.4494 21.0273 35.8356C21.0486 35.8824 21.0877 35.9188 21.1359 35.9368C21.184 35.9548 21.2374 35.9529 21.2842 35.9316C21.331 35.9103 21.3674 35.8712 21.3854 35.823C21.4034 35.7749 21.4015 35.7215 21.3802 35.6747C21.0137 34.7354 20.3953 32.7957 20.6744 32.185C20.6845 32.1558 20.7007 32.1291 20.7219 32.1067C20.7432 32.0843 20.769 32.0667 20.7976 32.0551C21.2629 31.8864 22.2458 33.4936 22.8904 35.0805C22.9082 35.1274 22.9434 35.1656 22.9887 35.1871C23.034 35.2086 23.0858 35.2117 23.1334 35.1958C23.1809 35.1799 23.2205 35.1461 23.2437 35.1017C23.2669 35.0572 23.2719 35.0055 23.2578 34.9574C22.7499 33.0458 22.6113 31.3949 22.9486 31.2738C22.9602 31.2738 23.3557 31.2932 24.5384 33.8455C25.1539 35.1736 25.6745 36.5229 25.6793 36.5365C25.6939 36.5748 25.7202 36.6075 25.7545 36.6299C25.7888 36.6523 25.8293 36.6632 25.8702 36.6612C25.9111 36.6591 25.9503 36.6442 25.9822 36.6185C26.0141 36.5928 26.037 36.5576 26.0477 36.5181C26.3899 35.2676 27.0064 33.9076 27.4048 33.894C27.4426 33.894 27.4891 33.9512 27.5076 33.9764C27.9922 34.6453 28.0562 37.8471 27.2739 39.9458C27.2625 39.9767 27.2592 40.0101 27.2643 40.0427C27.2827 40.1668 29.1584 52.5215 30.1229 58.0304C30.1272 58.0556 30.1364 58.0797 30.1501 58.1013C30.1637 58.1228 30.1815 58.1415 30.2023 58.1563C30.2232 58.171 30.2467 58.1814 30.2717 58.187C30.2966 58.1926 30.3223 58.1932 30.3475 58.1888C30.3726 58.1844 30.3967 58.175 30.4182 58.1613C30.4397 58.1476 30.4583 58.1298 30.473 58.1089C30.4876 58.0879 30.4979 58.0643 30.5034 58.0394C30.5089 58.0144 30.5094 57.9887 30.5049 57.9635C29.5723 52.632 27.7906 40.8958 27.6549 40.0301C28.4401 37.8742 28.4178 34.5716 27.8216 33.7457C27.7768 33.6714 27.7136 33.6099 27.638 33.5673C27.5624 33.5246 27.4771 33.5023 27.3903 33.5024C26.6962 33.5276 26.1165 35.0039 25.8393 35.8734C25.6212 35.3335 25.2576 34.4485 24.8505 33.5848C23.6475 31.0111 23.1493 30.7862 22.8148 30.9054C22.2749 31.0993 22.3098 32.2179 22.5056 33.3637C21.9831 32.4167 21.2822 31.4638 20.6638 31.6877C19.9222 31.9572 20.2828 33.4655 20.4903 34.2265C20.0162 33.5809 19.4637 33.0477 19.0081 33.2135C18.9476 33.2355 18.8926 33.2702 18.8468 33.3154C18.8009 33.3606 18.7654 33.4151 18.7425 33.4752C18.5564 33.9521 18.9509 35.064 19.3503 35.981C18.9567 35.6272 18.5418 35.3868 18.2229 35.5216C18.1842 35.5382 18.1498 35.5633 18.1221 35.595C18.0944 35.6267 18.0742 35.6642 18.0629 35.7048C18.0155 35.8667 17.9156 36.2021 19.7109 39.0976C20.4864 40.3578 21.2997 41.5676 21.4558 41.8041C21.5653 43.0303 23.0242 59.31 23.5884 61.6064C24.4608 65.1611 26.3424 67.0369 29.0295 67.0369Z" fill="#1F1F1F"/>
<path id="Vector_5" d="M75.9705 88.1101C75.5769 76.9322 74.5021 64.6347 73.2516 53.8194L84.2492 54.3506C85.5094 49.1906 83.7907 41.8525 83.7907 41.8525L61.8974 40.2607L53.5123 40.5118C51.147 40.6194 45.3599 41.2243 41.6859 43.704C34.9149 48.2716 30.0806 55.9937 30.0806 55.9937C32.2336 60.2308 34.9187 63.4646 37.6659 64.815C44.8393 57.3207 44.5078 57.6755 44.5029 57.6416C46.0074 66.6568 45.2612 77.6534 44.9597 88.2972C45.9733 88.9293 66.4287 88.1101 75.9705 88.1101Z" fill="white"/>
<path id="Vector_6" d="M84.9784 54.1442C83.1832 54.1442 84.9784 53.5897 84.5548 52.7114C84.5093 52.6874 84.4752 52.6463 84.46 52.5971C84.4449 52.5479 84.4498 52.4947 84.4739 52.4492C84.4979 52.4037 84.539 52.3696 84.5882 52.3545C84.6374 52.3393 84.6906 52.3442 84.7361 52.3683C84.7329 52.6203 83.2626 53.7564 84.9784 53.7564C88.1221 53.7564 89.4676 50.9666 90.0424 48.6255C90.6095 46.3175 92.1547 29.0064 92.1702 28.8309C92.1733 28.7982 92.1847 28.7669 92.2032 28.7398C93.8511 26.2999 95.5155 23.5488 95.5727 22.9769C95.2974 22.9827 94.6664 23.543 94.0673 24.3243C94.038 24.3633 93.9951 24.3899 93.9472 24.3987C93.8992 24.4075 93.8497 24.3979 93.8085 24.3718C93.7678 24.3463 93.738 24.3066 93.725 24.2604C93.7119 24.2142 93.7164 24.1648 93.7377 24.1217C94.4424 22.7491 95.0677 21.1438 94.901 20.7289C94.8864 20.6921 94.8738 20.6872 94.8661 20.6843C94.5423 20.567 93.7144 21.5567 92.9806 22.9429C92.9593 22.9897 92.9202 23.0261 92.8721 23.0441C92.8239 23.0621 92.7705 23.0603 92.7237 23.0389C92.6769 23.0176 92.6405 22.9785 92.6226 22.9303C92.6046 22.8822 92.6064 22.8288 92.6278 22.782C92.9942 21.8427 93.6127 19.903 93.3335 19.2923C93.3234 19.2631 93.3072 19.2364 93.286 19.214C93.2648 19.1916 93.239 19.174 93.2104 19.1624C92.7451 18.9937 91.7621 20.6009 91.1175 22.1878C91.0998 22.2347 91.0646 22.2729 91.0193 22.2944C90.9739 22.3159 90.9221 22.319 90.8745 22.3031C90.827 22.2872 90.7875 22.2534 90.7643 22.209C90.741 22.1645 90.736 22.1128 90.7501 22.0647C91.258 20.1531 91.3967 18.5022 91.0593 18.3811C91.0477 18.3811 90.6522 18.4005 89.4695 20.9528C88.854 22.2809 88.3334 23.6302 88.3286 23.6438C88.314 23.6821 88.2877 23.7148 88.2534 23.7372C88.2191 23.7596 88.1786 23.7705 88.1377 23.7685C88.0968 23.7664 88.0576 23.7515 88.0257 23.7258C87.9938 23.7001 87.9709 23.6649 87.9602 23.6254C87.618 22.3749 87.0015 21.0149 86.6031 21.0013C86.5653 21.0013 86.5188 21.0585 86.5004 21.0837C86.0157 21.7526 85.9517 24.9544 86.734 27.0531C86.7454 27.0841 86.7487 27.1174 86.7437 27.15C86.7253 27.2741 84.8495 39.6288 83.885 45.1377C83.8807 45.1629 83.8715 45.187 83.8578 45.2086C83.8442 45.2301 83.8265 45.2488 83.8056 45.2636C83.7847 45.2783 83.7612 45.2887 83.7363 45.2943C83.7113 45.2999 83.6856 45.3005 83.6604 45.2961C83.6353 45.2917 83.6113 45.2823 83.5897 45.2686C83.5682 45.2549 83.5496 45.2371 83.5349 45.2162C83.5203 45.1952 83.51 45.1716 83.5045 45.1467C83.499 45.1217 83.4985 45.096 83.5031 45.0708C84.4356 39.7393 86.2173 28.0031 86.353 27.1374C85.5678 24.9815 85.5901 21.6789 86.1863 20.853C86.2311 20.7787 86.2944 20.7172 86.37 20.6746C86.4455 20.6319 86.5309 20.6096 86.6177 20.6097C87.3117 20.6349 87.8914 22.1112 88.1686 22.9807C88.3868 22.4408 88.7503 21.5558 89.1574 20.6921C90.3604 18.1184 90.8587 17.8935 91.1931 18.0127C91.733 18.2066 91.6981 19.3252 91.5023 20.471C92.0248 19.524 92.7257 18.5711 93.3441 18.795C94.0857 19.0645 93.7251 20.5728 93.5177 21.3338C93.9917 20.6882 94.5442 20.155 94.9998 20.3208C95.0603 20.3428 95.1153 20.3775 95.1612 20.4227C95.207 20.4679 95.2426 20.5224 95.2654 20.5825C95.4516 21.0595 95.057 22.1713 94.6576 23.0884C95.0512 22.7345 95.4661 22.4941 95.785 22.6289C95.8237 22.6455 95.8582 22.6706 95.8858 22.7023C95.9135 22.734 95.9337 22.7715 95.945 22.8121C95.9925 22.974 96.0923 23.3094 94.297 26.2049C93.5215 27.4651 92.7082 28.6749 92.5522 28.9114C92.4426 30.1376 90.9837 46.4173 90.4195 48.7137C89.5471 52.2684 87.6655 54.1442 84.9784 54.1442Z" fill="#1F1F1F"/>
<path id="Vector_7" d="M34.4554 30.925C35.1264 30.925 35.7824 30.726 36.3403 30.3532C36.8983 29.9804 37.3331 29.4505 37.5899 28.8306C37.8467 28.2106 37.9139 27.5284 37.783 26.8703C37.6521 26.2122 37.3289 25.6076 36.8544 25.1331C36.38 24.6586 35.7754 24.3355 35.1173 24.2046C34.4591 24.0737 33.777 24.1409 33.157 24.3977C32.537 24.6545 32.0072 25.0893 31.6344 25.6473C31.2616 26.2052 31.0626 26.8612 31.0626 27.5322C31.0626 28.432 31.42 29.295 32.0563 29.9313C32.6926 30.5676 33.5555 30.925 34.4554 30.925ZM34.4554 24.5271C35.0497 24.5271 35.6307 24.7034 36.1249 25.0336C36.6191 25.3638 37.0042 25.8331 37.2317 26.3822C37.4591 26.9313 37.5186 27.5355 37.4027 28.1185C37.2867 28.7014 37.0005 29.2368 36.5803 29.6571C36.16 30.0774 35.6245 30.3636 35.0416 30.4795C34.4587 30.5955 33.8545 30.536 33.3054 30.3085C32.7563 30.0811 32.287 29.6959 31.9568 29.2017C31.6266 28.7076 31.4503 28.1266 31.4503 27.5322C31.4508 26.7356 31.7677 25.9717 32.3312 25.4086C32.8947 24.8454 33.6587 24.5291 34.4554 24.5291L34.4554 24.5271ZM101.358 37.6864C101.397 37.687 101.435 37.6759 101.467 37.6546C101.5 37.6332 101.525 37.6025 101.54 37.5665C101.555 37.5306 101.559 37.4909 101.551 37.4529C101.543 37.4148 101.523 37.3799 101.495 37.3529L95.9573 31.8159C95.9209 31.7795 95.8716 31.7591 95.8201 31.7591C95.7687 31.7591 95.7193 31.7795 95.683 31.8159C95.6466 31.8523 95.6261 31.9016 95.6261 31.953C95.6261 32.0045 95.6466 32.0538 95.683 32.0902L101.221 37.6292C101.257 37.6656 101.306 37.6862 101.358 37.6864Z" fill="white"/>
<path id="Vector_8" d="M95.8153 37.6863C95.8667 37.6861 95.9158 37.6655 95.952 37.6291L101.49 32.092C101.526 32.0556 101.547 32.0063 101.547 31.9548C101.547 31.9034 101.526 31.8541 101.49 31.8177C101.454 31.7813 101.404 31.7609 101.353 31.7609C101.301 31.7609 101.252 31.7813 101.216 31.8177L95.6777 37.3528C95.6497 37.3798 95.6304 37.4146 95.6224 37.4527C95.6145 37.4908 95.6182 37.5304 95.633 37.5664C95.6479 37.6024 95.6732 37.633 95.7057 37.6544C95.7382 37.6758 95.7764 37.6869 95.8153 37.6863ZM12.5597 67.3879L20.178 67.3879C20.212 67.3878 20.2454 67.3789 20.2749 67.3618C20.3043 67.3448 20.3288 67.3203 20.3458 67.2909C20.3628 67.2614 20.3717 67.228 20.3717 67.194C20.3717 67.1599 20.3627 67.1265 20.3457 67.0971L16.537 60.4995C16.5201 60.4699 16.4956 60.4453 16.466 60.4282C16.4365 60.4111 16.403 60.4021 16.3689 60.4021C16.3347 60.4021 16.3012 60.4111 16.2717 60.4282C16.2421 60.4453 16.2176 60.4699 16.2007 60.4995L12.392 67.0971C12.375 67.1265 12.366 67.1599 12.366 67.194C12.366 67.228 12.375 67.2614 12.3919 67.2909C12.4089 67.3203 12.4334 67.3448 12.4628 67.3618C12.4923 67.3789 12.5257 67.3878 12.5597 67.3879ZM19.8416 67.0001L12.898 67.0001L16.3713 60.9842L19.8416 67.0001Z" fill="white"/>
<path id="Vector_9" d="M55.1333 8.78915C55.1605 8.78928 55.1874 8.78371 55.2122 8.77277C55.2371 8.76184 55.2594 8.7458 55.2777 8.72569C55.296 8.70558 55.3098 8.68185 55.3184 8.65604C55.3269 8.63024 55.3299 8.60293 55.3272 8.57589L54.888 4.05182C54.8856 4.02636 54.8782 4.00162 54.8662 3.97903C54.8542 3.95643 54.8379 3.93642 54.8182 3.92012C54.7985 3.90383 54.7758 3.89158 54.7513 3.88407C54.7269 3.87656 54.7012 3.87394 54.6757 3.87636C54.6503 3.87878 54.6255 3.88619 54.6029 3.89817C54.5803 3.91015 54.5603 3.92646 54.544 3.94617C54.5277 3.96588 54.5155 3.98861 54.508 4.01306C54.5005 4.03751 54.4979 4.06319 54.5003 4.08865L54.9394 8.61369C54.944 8.66185 54.9664 8.70656 55.0023 8.73902C55.0382 8.77149 55.0849 8.78937 55.1333 8.78915ZM52.104 9.92428C52.1396 9.9243 52.1745 9.91451 52.2049 9.89599C52.2353 9.87747 52.26 9.85093 52.2764 9.81929C52.2927 9.78765 52.3 9.75212 52.2974 9.71661C52.2949 9.68109 52.2826 9.64697 52.262 9.61796L49.6185 5.91883C49.6039 5.89749 49.5853 5.87927 49.5636 5.86525C49.5419 5.85123 49.5176 5.8417 49.4921 5.8372C49.4667 5.8327 49.4406 5.83333 49.4154 5.83906C49.3902 5.84478 49.3664 5.85549 49.3454 5.87054C49.3244 5.8856 49.3066 5.9047 49.2931 5.92672C49.2796 5.94875 49.2706 5.97325 49.2667 5.99879C49.2628 6.02433 49.264 6.0504 49.2704 6.07545C49.2767 6.10051 49.2879 6.12405 49.3035 6.1447L51.946 9.84286C51.9639 9.86805 51.9876 9.88858 52.0151 9.90275C52.0426 9.91691 52.0731 9.9243 52.104 9.92428ZM50.5074 12.6337C50.5517 12.6337 50.5947 12.6186 50.6291 12.5908C50.6636 12.563 50.6876 12.5242 50.697 12.481C50.7064 12.4377 50.7007 12.3925 50.6808 12.3529C50.661 12.3133 50.6282 12.2817 50.5879 12.2634L45.9901 10.1724C45.967 10.1619 45.942 10.156 45.9165 10.1551C45.8911 10.1542 45.8657 10.1583 45.8418 10.1672C45.818 10.1761 45.7961 10.1897 45.7775 10.207C45.7588 10.2244 45.7438 10.2452 45.7333 10.2684C45.7227 10.2916 45.7168 10.3166 45.7159 10.3421C45.715 10.3675 45.7191 10.3929 45.728 10.4167C45.7369 10.4406 45.7505 10.4624 45.7678 10.4811C45.7852 10.4997 45.8061 10.5147 45.8292 10.5253C50.7517 12.7616 50.4454 12.6337 50.5074 12.6337Z" fill="white"/>
<path id="Vector_10" d="M15.8221 20.3373L42.7591 20.3373C42.7961 20.3374 42.8323 20.3268 42.8634 20.3069C42.8946 20.2871 42.9195 20.2587 42.935 20.2252C42.9506 20.1917 42.9563 20.1544 42.9514 20.1178C42.9465 20.0811 42.9313 20.0466 42.9074 20.0184L39.2567 15.6785L39.2567 2.44268C39.256 1.84672 39.0189 1.27538 38.5975 0.853969C38.1761 0.432558 37.6047 0.195471 37.0088 0.194702L15.8473 0.1947C15.2513 0.195213 14.6798 0.432218 14.2583 0.853684C13.8369 1.27515 13.5999 1.84663 13.5994 2.44268L13.5994 18.0893C13.6001 18.681 13.8337 19.2485 14.2497 19.6692C14.6657 20.0899 15.2305 20.3299 15.8221 20.3373ZM42.3403 19.9496L15.8473 19.9496C15.3541 19.9491 14.8813 19.7529 14.5325 19.4042C14.1838 19.0554 13.9876 18.5825 13.9871 18.0893L13.9871 2.44268C13.9876 1.94947 14.1838 1.47661 14.5325 1.12786C14.8813 0.779115 15.3541 0.582963 15.8473 0.582449L37.0059 0.582451C37.4991 0.582964 37.9719 0.779117 38.3207 1.12787C38.6694 1.47662 38.8656 1.94947 38.8661 2.44268L38.8661 15.7493C38.866 15.795 38.8822 15.8393 38.9116 15.8743L42.3403 19.9496Z" fill="white"/>
<path id="Vector_11" d="M18.9133 6.47051L34.1499 6.47051C34.2013 6.47051 34.2506 6.45009 34.287 6.41373C34.3233 6.37737 34.3437 6.32806 34.3437 6.27664C34.3437 6.22522 34.3233 6.17591 34.287 6.13955C34.2506 6.10319 34.2013 6.08276 34.1499 6.08276L18.9133 6.08276C18.8618 6.08276 18.8125 6.10319 18.7762 6.13955C18.7398 6.17591 18.7194 6.22522 18.7194 6.27664C18.7194 6.32806 18.7398 6.37737 18.7762 6.41373C18.8125 6.45009 18.8618 6.47051 18.9133 6.47051ZM18.9133 10.6747L34.1499 10.6747C34.2013 10.6747 34.2506 10.6543 34.287 10.6179C34.3233 10.5815 34.3437 10.5322 34.3437 10.4808C34.3437 10.4294 34.3233 10.3801 34.287 10.3437C34.2506 10.3074 34.2013 10.2869 34.1499 10.2869L18.9133 10.2869C18.8618 10.2869 18.8125 10.3074 18.7762 10.3437C18.7398 10.3801 18.7194 10.4294 18.7194 10.4808C18.7194 10.5322 18.7398 10.5815 18.7762 10.6179C18.8125 10.6543 18.8618 10.6747 18.9133 10.6747ZM23.0176 14.8798L34.1499 14.8798C34.2013 14.8798 34.2506 14.8594 34.287 14.823C34.3233 14.7867 34.3437 14.7374 34.3437 14.686C34.3437 14.6345 34.3233 14.5852 34.287 14.5489C34.2506 14.5125 34.2013 14.4921 34.1499 14.4921L23.0176 14.4921C22.9662 14.4921 22.9169 14.5125 22.8805 14.5489C22.8441 14.5852 22.8237 14.6345 22.8237 14.686C22.8237 14.7374 22.8441 14.7867 22.8805 14.823C22.9169 14.8594 22.9662 14.8798 23.0176 14.8798Z" fill="white"/>
<path id="Vector_12" d="M37.8095 64.9509L47.3957 54.9286C47.4146 54.9105 47.4296 54.8887 47.4398 54.8646C47.4501 54.8405 47.4553 54.8146 47.4553 54.7885C47.4553 54.7623 47.4499 54.7364 47.4396 54.7123C47.4293 54.6883 47.4143 54.6666 47.3953 54.6485C47.3764 54.6304 47.354 54.6164 47.3295 54.6072C47.305 54.598 47.2789 54.5938 47.2528 54.595C47.2266 54.5962 47.201 54.6026 47.1774 54.614C47.1538 54.6253 47.1328 54.6413 47.1155 54.661L37.6263 64.5787C35.0565 63.2574 32.4644 60.2223 30.3056 56.0046C30.8775 55.1186 35.5344 48.0877 41.7966 43.8612C44.1657 42.2618 47.4189 41.4795 49.7319 41.1034C49.7583 41.1008 49.7838 41.0929 49.807 41.08C49.8303 41.0672 49.8506 41.0497 49.8668 41.0287C49.883 41.0077 49.8947 40.9836 49.9012 40.9579C49.9077 40.9322 49.9088 40.9055 49.9046 40.8793C49.9003 40.8531 49.8908 40.8281 49.8764 40.8058C49.8621 40.7835 49.8434 40.7643 49.8214 40.7495C49.7994 40.7347 49.7746 40.7246 49.7485 40.7198C49.7225 40.7149 49.6957 40.7155 49.6698 40.7214C47.3191 41.1024 44.0067 41.9012 41.5794 43.5394C34.852 48.0809 29.9663 55.8126 29.9179 55.8902C29.8995 55.9189 29.889 55.9519 29.8875 55.986C29.886 56.02 29.8934 56.0538 29.9091 56.0841C32.1513 60.4976 34.8762 63.6617 37.5808 64.9936C37.6184 65.0122 37.661 65.0181 37.7023 65.0104C37.7435 65.0027 37.7812 64.9818 37.8095 64.9509ZM45.1409 88.024C45.1913 88.024 45.2398 88.0044 45.276 87.9693C45.3122 87.9341 45.3333 87.8863 45.3348 87.8359C45.6004 78.4466 46.0841 69.4236 45.1991 61.2382C45.1935 61.1868 45.1678 61.1397 45.1276 61.1072C45.0873 61.0748 45.0358 61.0597 44.9844 61.0652C44.9329 61.0707 44.8858 61.0965 44.8534 61.1367C44.8209 61.177 44.8058 61.2285 44.8113 61.2799C45.6993 69.4924 45.2049 78.6492 44.9461 87.8243C44.9453 87.8503 44.9498 87.8762 44.9592 87.9005C44.9687 87.9247 44.9829 87.9469 45.0011 87.9655C45.0193 87.9841 45.041 87.9989 45.065 88.009C45.0891 88.019 45.1149 88.0241 45.1409 88.024ZM84.2503 54.5437C84.2936 54.5437 84.3356 54.5292 84.3697 54.5025C84.4038 54.4758 84.428 54.4384 84.4384 54.3964C84.8387 52.7591 84.9831 50.7418 84.8678 48.4008C84.8666 48.3753 84.8604 48.3504 84.8495 48.3273C84.8386 48.3043 84.8234 48.2836 84.8045 48.2664C84.7856 48.2493 84.7636 48.236 84.7396 48.2274C84.7156 48.2188 84.6902 48.2149 84.6647 48.2161C84.6392 48.2174 84.6143 48.2236 84.5912 48.2344C84.5682 48.2453 84.5475 48.2606 84.5303 48.2794C84.5132 48.2983 84.4999 48.3204 84.4913 48.3443C84.4826 48.3683 84.4788 48.3938 84.48 48.4192C84.5896 50.6488 84.4607 52.5759 84.0981 54.1482L76.1967 53.7673C76.1713 53.7661 76.1458 53.7699 76.1218 53.7785C76.0979 53.7871 76.0758 53.8004 76.057 53.8175C76.0381 53.8347 76.0228 53.8554 76.0119 53.8784C76.0011 53.9015 75.9949 53.9265 75.9937 53.9519C75.9924 53.9774 75.9963 54.0028 76.0049 54.0268C76.0135 54.0508 76.0268 54.0729 76.0439 54.0917C76.0611 54.1106 76.0818 54.1259 76.1048 54.1367C76.1279 54.1476 76.1529 54.1538 76.1783 54.155C85.4407 54.6019 84.1233 54.5437 84.2503 54.5437ZM78.4428 41.6569C78.4942 41.6588 78.5443 41.6402 78.582 41.6052C78.6197 41.5702 78.642 41.5217 78.6439 41.4703C78.6459 41.4189 78.6273 41.3688 78.5923 41.3311C78.5573 41.2933 78.5087 41.2711 78.4573 41.2691L65.68 40.3395C65.6545 40.3377 65.629 40.3408 65.6047 40.3489C65.5805 40.3569 65.5581 40.3696 65.5388 40.3863C65.5195 40.403 65.5037 40.4234 65.4922 40.4462C65.4808 40.469 65.4739 40.4939 65.4721 40.5193C65.4702 40.5448 65.4734 40.5704 65.4815 40.5946C65.4895 40.6188 65.5022 40.6412 65.5189 40.6605C65.5356 40.6798 65.556 40.6957 65.5788 40.7071C65.6016 40.7186 65.6264 40.7254 65.6519 40.7272L78.4428 41.6569ZM75.8187 88.2047C75.8447 88.2048 75.8705 88.1995 75.8945 88.1894C75.9185 88.1792 75.9401 88.1643 75.9582 88.1456C75.9763 88.1269 75.9905 88.1047 75.9998 88.0804C76.0091 88.0561 76.0135 88.0301 76.0126 88.0041C75.6083 76.5393 74.6244 63.3011 73.0075 50.0836C73.0044 50.0582 72.9963 50.0336 72.9837 50.0113C72.971 49.9889 72.9541 49.9693 72.9339 49.9535C72.9137 49.9377 72.8906 49.9261 72.8659 49.9192C72.8412 49.9123 72.8153 49.9104 72.7899 49.9135C72.7644 49.9166 72.7398 49.9247 72.7175 49.9374C72.6952 49.95 72.6755 49.9669 72.6597 49.9871C72.6439 50.0073 72.6323 50.0304 72.6254 50.0551C72.6186 50.0799 72.6166 50.1057 72.6198 50.1311C74.2386 63.335 75.2225 76.5645 75.6248 88.0177C75.6266 88.0679 75.6478 88.1155 75.6839 88.1504C75.7201 88.1853 75.7684 88.2048 75.8187 88.2047Z" fill="#1F1F1F"/>
<path id="Vector_13" d="M52.7449 28.5442L53.5204 40.5092C53.5204 40.5092 57.4812 45.6284 60.8469 44.9227C62.7944 44.5146 62.0199 40.4384 62.0199 40.4384L60.6879 34.8713L52.7449 28.5442Z" fill="white"/>
<path id="Vector_14" d="M60.879 45.1125C62.9874 44.6705 62.2361 40.5759 62.2012 40.4023L60.8674 34.8255C60.8548 34.7761 60.8234 34.7337 60.7797 34.7073C60.7361 34.6809 60.6839 34.6728 60.6343 34.6846C60.5848 34.6965 60.5419 34.7274 60.5149 34.7706C60.488 34.8139 60.4791 34.866 60.4903 34.9157L61.8222 40.4838C61.9377 41.1575 61.9842 41.8412 61.9608 42.5243C61.8988 43.8417 61.5081 44.5842 60.7976 44.7325C57.7547 45.3714 54.1089 40.9413 53.7008 40.4363L53.4478 36.1003C53.4463 36.0748 53.4398 36.0499 53.4287 36.0269C53.4176 36.004 53.4021 35.9834 53.3831 35.9664C53.3641 35.9495 53.3419 35.9364 53.3178 35.928C53.2937 35.9196 53.2682 35.9161 53.2427 35.9175C53.2173 35.919 53.1924 35.9255 53.1694 35.9366C53.1464 35.9477 53.1259 35.9632 53.1089 35.9822C53.0919 36.0012 53.0789 36.0234 53.0705 36.0475C53.0621 36.0716 53.0586 36.0971 53.06 36.1226L53.3179 40.5206C53.3197 40.5594 53.3336 40.5967 53.3576 40.6272C54.0873 41.5351 54.9006 42.3724 55.7869 43.1282C57.1954 44.3196 59.0789 45.4896 60.879 45.1125Z" fill="#1F1F1F"/>
<path id="Vector_15" d="M57.9459 35.4471C60.4711 36.5676 63.3133 36.9719 65.7009 36.4484C70.9627 35.2929 69.7355 28.2407 69.3409 23.7816C68.6934 16.4745 63.3376 14.875 58.1931 16.2757C53.0487 17.6765 50.0921 23.2814 51.5927 28.7933C52.0075 30.3181 52.8732 31.6723 54.0161 32.8094" fill="white"/>
<path id="Vector_16" d="M65.7319 36.6373C70.6999 35.5468 70.094 29.4523 69.6462 25.0048C69.6026 24.5706 69.5619 24.1615 69.527 23.767C69.2487 20.6272 68.1126 18.3385 66.1487 16.9745C64.1082 15.5534 61.2611 15.2394 58.1329 16.0914C52.9584 17.4999 49.8458 23.1524 51.3968 28.8474C51.8029 30.3422 52.6366 31.7216 53.8735 32.9498C53.91 32.9861 53.9594 33.0063 54.0109 33.0062C54.0623 33.006 54.1116 32.9854 54.1478 32.9489C54.1841 32.9124 54.2044 32.8629 54.2042 32.8115C54.204 32.76 54.1834 32.7108 54.1469 32.6745C52.9584 31.4958 52.1597 30.1735 51.7709 28.7457C50.3062 23.3656 53.161 17.847 58.2347 16.4656C61.2553 15.6388 63.987 15.9354 65.9325 17.2867C67.7966 18.5856 68.8775 20.7764 69.145 23.796C69.5686 28.5673 70.6611 35.1571 65.6553 36.2564C63.3579 36.7604 60.5767 36.3998 58.0234 35.2666C57.9999 35.2546 57.9742 35.2474 57.9479 35.2456C57.9215 35.2438 57.8951 35.2474 57.8702 35.2562C57.8453 35.2649 57.8225 35.2787 57.8031 35.2966C57.7837 35.3145 57.7682 35.3362 57.7575 35.3604C57.7468 35.3845 57.7411 35.4106 57.7408 35.437C57.7405 35.4634 57.7456 35.4895 57.7558 35.5139C57.766 35.5382 57.7811 35.5603 57.8001 35.5786C57.8191 35.5969 57.8416 35.6112 57.8664 35.6205C60.282 36.6965 63.1805 37.1986 65.7319 36.6373Z" fill="#1F1F1F"/>
<path id="Vector_17" d="M64.9566 30.3326C65.0235 30.3326 65.8707 30.321 66.0772 29.7442C66.2788 29.183 65.2668 28.4268 64.9518 28.2078C64.9095 28.1785 64.8573 28.1671 64.8066 28.1763C64.756 28.1855 64.7111 28.2144 64.6818 28.2567C64.6525 28.299 64.6412 28.3512 64.6504 28.4018C64.6595 28.4525 64.6885 28.4974 64.7308 28.5267C65.2494 28.8863 65.7786 29.4282 65.7127 29.6134C65.6235 29.8605 65.2038 29.9449 64.9556 29.9449C64.9042 29.9449 64.8549 29.9653 64.8186 30.0017C64.7822 30.038 64.7618 30.0873 64.7618 30.1388C64.7618 30.1902 64.7822 30.2395 64.8186 30.2758C64.8549 30.3122 64.9042 30.3326 64.9556 30.3326L64.9566 30.3326ZM67.1581 26.9582C67.1877 26.9582 67.2169 26.9513 67.2435 26.9382C67.2701 26.9251 67.2933 26.906 67.3114 26.8825C67.3294 26.859 67.3419 26.8317 67.3477 26.8027C67.3536 26.7736 67.3527 26.7436 67.3452 26.7149L67.1513 25.9937C67.1457 25.9682 67.1351 25.9441 67.12 25.9229C67.1049 25.9016 67.0857 25.8836 67.0635 25.8699C67.0412 25.8563 67.0165 25.8472 66.9907 25.8433C66.9649 25.8394 66.9386 25.8408 66.9134 25.8473C66.8881 25.8539 66.8644 25.8654 66.8437 25.8813C66.8231 25.8972 66.8058 25.9171 66.793 25.9398C66.7802 25.9625 66.7721 25.9876 66.7692 26.0135C66.7663 26.0394 66.7686 26.0657 66.7761 26.0906L66.97 26.8119C66.9806 26.8537 67.0048 26.8908 67.0389 26.9174C67.073 26.9439 67.1149 26.9583 67.1581 26.9582ZM66.7984 23.9464C66.8359 23.9463 66.8725 23.9354 66.9039 23.9149C66.9353 23.8944 66.96 23.8653 66.9752 23.8311C66.9904 23.7968 66.9953 23.7589 66.9894 23.7219C66.9835 23.6849 66.967 23.6504 66.9419 23.6226C66.7538 23.4142 66.2536 23.1059 65.7108 23.4287C65.6692 23.4563 65.6397 23.4988 65.6286 23.5474C65.6175 23.5961 65.6256 23.6471 65.6512 23.69C65.6768 23.7328 65.718 23.7641 65.7661 23.7774C65.8142 23.7907 65.8656 23.7849 65.9095 23.7612C66.3186 23.516 66.6404 23.865 66.654 23.8795C66.672 23.9002 66.6941 23.9169 66.719 23.9285C66.7439 23.94 66.771 23.9461 66.7984 23.9464ZM61.7131 27.915C61.7428 27.915 61.7722 27.9081 61.7989 27.895C61.8255 27.8818 61.8488 27.8626 61.8669 27.839C61.885 27.8154 61.8974 27.7879 61.9032 27.7588C61.9089 27.7296 61.9079 27.6995 61.9002 27.6707L61.7063 26.9495C61.7007 26.924 61.6901 26.8999 61.675 26.8787C61.6599 26.8574 61.6407 26.8394 61.6185 26.8257C61.5963 26.8121 61.5715 26.803 61.5457 26.7991C61.5199 26.7953 61.4936 26.7966 61.4684 26.8031C61.4431 26.8097 61.4195 26.8212 61.3988 26.8371C61.3781 26.853 61.3608 26.8729 61.348 26.8956C61.3352 26.9183 61.3271 26.9434 61.3242 26.9693C61.3213 26.9952 61.3237 27.0215 61.3312 27.0465L61.525 27.7677C61.5354 27.8097 61.5596 27.847 61.5937 27.8737C61.6277 27.9004 61.6698 27.915 61.7131 27.915ZM60.3899 24.9836C60.4223 24.9836 60.4542 24.9754 60.4827 24.9598C60.5111 24.9442 60.5352 24.9217 60.5528 24.8944C60.5809 24.8518 60.8368 24.4854 61.2681 24.6521C61.2922 24.6632 61.3182 24.6692 61.3446 24.6699C61.3711 24.6705 61.3974 24.6658 61.4219 24.6559C61.4464 24.646 61.4687 24.6312 61.4873 24.6124C61.5059 24.5935 61.5204 24.5711 61.53 24.5465C61.5397 24.5218 61.5441 24.4955 61.5432 24.4691C61.5422 24.4426 61.5358 24.4167 61.5245 24.3928C61.5131 24.3689 61.497 24.3476 61.4771 24.3302C61.4572 24.3127 61.4339 24.2996 61.4087 24.2915C60.8184 24.0617 60.3773 24.4485 60.2261 24.686C60.2075 24.7153 60.1971 24.7491 60.1961 24.7838C60.195 24.8185 60.2033 24.8528 60.22 24.8832C60.2368 24.9136 60.2614 24.939 60.2912 24.9567C60.3211 24.9743 60.3552 24.9836 60.3899 24.9836ZM66.4475 31.9011C66.456 31.8666 66.4548 31.8304 66.4442 31.7966C66.4335 31.7627 66.4137 31.7324 66.387 31.709C66.3603 31.6856 66.3277 31.67 66.2927 31.6639C66.2577 31.6577 66.2218 31.6613 66.1887 31.6742C65.8979 31.7886 64.6513 32.062 63.1943 31.9408C63.1622 31.9381 63.1299 31.9435 63.1004 31.9564C63.0709 31.9693 63.045 31.9893 63.0252 32.0147C63.0054 32.0401 62.9922 32.0701 62.9869 32.1019C62.9815 32.1336 62.9842 32.1662 62.9946 32.1967C63.6266 34.0463 65.9463 33.9183 66.4475 31.9011ZM65.9551 32.1454C65.7903 32.5254 65.4345 33.0663 64.7327 33.1147C64.0309 33.1632 63.6664 32.6834 63.4841 32.3509C64.3133 32.3925 65.1442 32.3234 65.9551 32.1454Z" fill="#1F1F1F"/>
<path id="Vector_18" d="M63.1809 32.1338C64.696 32.2627 65.962 31.9738 66.2625 31.8546C66.1414 32.3441 65.7187 33.2417 64.7484 33.3086C63.8565 33.3658 63.3593 32.6553 63.1809 32.1338ZM53.3951 35.291C53.6946 34.9033 53.5473 33.9659 53.2807 32.4662C52.9947 30.8571 52.6409 28.8679 53.3679 28.5442C53.556 28.6837 53.8226 28.9319 54.0814 29.1694C54.821 29.848 55.0304 30.0166 55.2301 29.9381C55.2727 29.9207 55.3094 29.8915 55.3358 29.8538C55.3623 29.8162 55.3774 29.7718 55.3794 29.7258C55.5965 26.8293 57.8028 25.7717 57.163 22.4313C58.8633 22.7987 64.347 22.7046 68.6094 20.4819C71.5747 19.3109 71.6455 14.3748 69.7513 12.407C65.7904 8.28812 52.7039 9.37672 50.5247 16.8351C44.8054 18.3376 46.1228 31.1518 52.9482 35.4403C53.0742 35.5217 53.2884 35.4277 53.3951 35.291ZM53.3514 28.1409C52.1717 28.4443 52.5585 30.6176 52.8987 32.5341C52.9744 32.9587 53.3456 34.816 53.0771 35.0661C46.465 30.8232 45.359 18.4365 50.7244 17.1899C50.7586 17.182 50.7899 17.1651 50.8152 17.1408C50.8404 17.1166 50.8586 17.086 50.8679 17.0522C52.8609 9.80325 65.6896 8.74857 69.4712 12.6813C71.1928 14.4708 71.1501 19.0792 68.4582 20.13C68.2643 20.2056 65.8156 21.6645 61.3934 22.1046C59.125 22.3305 57.4461 22.1686 56.9779 21.9815C56.9455 21.9694 56.9104 21.9662 56.8764 21.9722C56.8423 21.9782 56.8105 21.9932 56.7842 22.0156C56.7579 22.0381 56.7381 22.0672 56.7268 22.0999C56.7155 22.1325 56.7132 22.1677 56.72 22.2015C57.5091 25.5372 55.3387 26.5521 55.0159 29.4718C54.6087 29.1578 53.8885 28.4143 53.5085 28.1651C53.4853 28.1507 53.4593 28.1414 53.4322 28.1377C53.4052 28.134 53.3776 28.1361 53.3514 28.1438L53.3514 28.1409Z" fill="#1F1F1F"/>
<path id="Vector_19" d="M56.8962 22.1568C57.7231 25.6563 55.4034 26.677 55.1756 29.7112C55.1514 30.0369 53.9067 28.6681 53.389 28.3288C51.5821 28.7932 54.2276 35.1881 53.0381 35.2763C46.2758 31.0247 45.0515 18.3065 50.6709 16.9959C52.7124 9.57242 65.735 8.52065 69.6028 12.5416C71.401 14.4115 71.3651 19.1915 68.52 20.3053C63.9407 22.6977 57.9945 22.596 56.8962 22.1568Z" fill="#1F1F1F"/>
<path id="Vector_20" d="M54.2812 32.8559C53.9051 33.3329 53.4175 33.7458 52.7865 33.9223C51.219 34.3488 49.4712 33.0324 48.9158 30.9918C48.4892 29.4244 49.6234 27.6291 51.2558 27.6679C51.9102 27.6834 52.6876 27.9121 53.3885 28.3328" fill="white"/>
<path id="Vector_21" d="M54.4348 32.9759C54.4506 32.9559 54.4623 32.933 54.4692 32.9085C54.4762 32.884 54.4782 32.8584 54.4752 32.8331C54.4723 32.8078 54.4643 32.7833 54.4519 32.7611C54.4395 32.7389 54.4228 32.7193 54.4028 32.7035C54.3828 32.6877 54.3599 32.676 54.3354 32.6691C54.3109 32.6622 54.2853 32.6601 54.26 32.6631C54.2347 32.6661 54.2102 32.674 54.188 32.6864C54.1658 32.6988 54.1462 32.7155 54.1304 32.7355C52.4059 34.9205 49.7896 33.4558 49.1042 30.9364C48.7165 29.5036 49.744 27.8208 51.2533 27.8576C51.896 27.8731 52.6405 28.1058 53.2948 28.4955C53.3386 28.5152 53.3881 28.5181 53.4338 28.5034C53.4795 28.4888 53.5182 28.4577 53.5423 28.4162C53.5664 28.3748 53.5743 28.3258 53.5644 28.2788C53.5545 28.2319 53.5275 28.1902 53.4887 28.162C52.7791 27.7394 51.9658 27.4834 51.2591 27.4699C49.4803 27.4292 48.2706 29.3631 48.7271 31.0381C49.5026 33.8794 52.5077 35.4139 54.4348 32.9759Z" fill="#1F1F1F"/>
<path id="Vector_22" d="M52.7197 32.3401C52.7637 32.3405 52.8066 32.3259 52.8412 32.2987C52.8758 32.2715 52.9002 32.2333 52.9102 32.1905C52.9203 32.1476 52.9154 32.1026 52.8965 32.0628C52.8775 32.0231 52.8456 31.9909 52.8059 31.9717C51.7571 31.4502 52.2534 30.7116 53.0822 30.9054C53.1132 30.9127 53.1456 30.9122 53.1764 30.904C53.2072 30.8958 53.2355 30.8801 53.2588 30.8583C53.2821 30.8366 53.2996 30.8094 53.3099 30.7793C53.3202 30.7491 53.3229 30.7168 53.3178 30.6854C53.1239 29.4824 52.3542 29.2265 51.9131 29.1819C51.1027 29.0985 50.1983 29.5774 50.0258 30.0272C50.0074 30.0753 50.0089 30.1287 50.0299 30.1757C50.0509 30.2227 50.0897 30.2594 50.1377 30.2778C50.1858 30.2962 50.2392 30.2947 50.2862 30.2737C50.3332 30.2527 50.3699 30.2139 50.3883 30.1658C50.5531 29.7354 52.424 28.9056 52.8777 30.4867C51.791 30.4421 51.2869 31.6499 52.6334 32.3159C52.6599 32.3306 52.6894 32.3389 52.7197 32.3401Z" fill="#1F1F1F"/>
<path id="Vector_23" d="M10.9366 60.1713C12.7013 60.172 14.4354 59.7109 15.9667 58.8336C15.9887 58.8209 16.0081 58.8039 16.0236 58.7837C16.0392 58.7635 16.0506 58.7404 16.0572 58.7158C16.0638 58.6912 16.0655 58.6655 16.0622 58.6402C16.0589 58.6149 16.0506 58.5906 16.0379 58.5685C16.0252 58.5464 16.0082 58.527 15.988 58.5115C15.9678 58.496 15.9447 58.4846 15.9201 58.478C15.8955 58.4713 15.8698 58.4696 15.8445 58.4729C15.8192 58.4762 15.7949 58.4845 15.7728 58.4972C13.6241 59.7314 11.0857 60.1003 8.67456 59.5287C6.26342 58.9571 4.16079 57.488 2.79478 55.4206C1.42877 53.3531 0.902091 50.8428 1.32198 48.4006C1.74188 45.9585 3.07677 43.7682 5.05487 42.2757C7.03296 40.7833 9.50553 40.1008 11.9691 40.3674C14.4327 40.6339 16.7021 41.8294 18.3152 43.7104C19.9283 45.5914 20.7638 48.0165 20.6517 50.492C20.5395 52.9674 19.4881 55.307 17.7115 57.0345C17.6746 57.0703 17.6535 57.1194 17.6528 57.1708C17.652 57.2223 17.6718 57.2719 17.7077 57.3088C17.7435 57.3457 17.7926 57.3668 17.844 57.3675C17.8955 57.3683 17.9451 57.3485 17.982 57.3127C19.664 55.6785 20.7256 53.5103 20.9849 51.1795C21.2442 48.8487 20.6851 46.5003 19.4033 44.5363C18.1215 42.5724 16.1969 41.1152 13.9589 40.4143C11.7209 39.7133 9.30886 39.8123 7.1358 40.6941C4.96273 41.5759 3.16385 43.1858 2.04721 45.2481C0.930562 47.3104 0.565627 49.6967 1.0149 51.9985C1.46418 54.3002 2.69971 56.3742 4.50991 57.8652C6.32011 59.3562 8.59237 60.1714 10.9375 60.1713L10.9366 60.1713Z" fill="white"/>
<path id="Vector_24" d="M3.73772 54.2069C4.46639 55.4736 5.51614 56.5259 6.78114 57.2576C8.04615 57.9893 9.4817 58.3746 10.9431 58.3746C12.4045 58.3746 13.84 57.9893 15.105 57.2576C16.37 56.5259 17.4198 55.4736 18.1484 54.2069C17.4196 52.9404 16.3697 51.8883 15.1048 51.1568C13.8398 50.4253 12.4043 50.0402 10.9431 50.0402C9.48182 50.0402 8.04637 50.4253 6.78139 51.1568C5.51641 51.8883 4.46659 52.9404 3.73772 54.2069Z" fill="white"/>
<path id="Vector_25" d="M10.9498 50.4021C8.94164 50.4021 7.31369 48.7742 7.31369 46.766C7.31369 44.7578 8.94164 43.1299 10.9498 43.1299C12.958 43.1299 14.5859 44.7578 14.5859 46.766C14.5859 48.7742 12.958 50.4021 10.9498 50.4021Z" fill="white"/>
<path id="Vector_26" d="M98.5499 82.1697C98.591 82.1698 98.6312 82.1568 98.6645 82.1326C98.6977 82.1084 98.7225 82.0742 98.735 82.035L100.587 76.2546C100.595 76.2303 100.598 76.2047 100.596 76.1792C100.594 76.1538 100.587 76.129 100.575 76.1063C100.564 76.0836 100.547 76.0634 100.528 76.0469C100.508 76.0305 100.486 76.018 100.461 76.0103C100.412 75.9948 100.359 75.9994 100.314 76.023C100.268 76.0466 100.234 76.0874 100.218 76.1363L98.4248 81.7325L80.5883 76.0132L84.7305 63.1002L102.567 68.8137L101.038 73.583C101.029 73.6295 101.037 73.6778 101.06 73.7189C101.084 73.76 101.122 73.7909 101.167 73.8058C101.212 73.8208 101.261 73.8187 101.305 73.7999C101.348 73.7812 101.384 73.7471 101.404 73.7042L102.991 68.7507C102.998 68.7264 103.001 68.7009 102.999 68.6755C102.997 68.6501 102.99 68.6253 102.979 68.6026C102.967 68.5799 102.951 68.5598 102.932 68.5432C102.912 68.5267 102.89 68.5142 102.866 68.5064L84.6626 62.6717C84.6138 62.6562 84.5607 62.6606 84.5151 62.684C84.4695 62.7075 84.4351 62.748 84.4193 62.7968L80.1618 76.084C80.154 76.1083 80.151 76.1339 80.1531 76.1594C80.1552 76.1848 80.1623 76.2096 80.174 76.2323C80.1858 76.255 80.2018 76.2752 80.2214 76.2917C80.2409 76.3081 80.2635 76.3206 80.2878 76.3283C99.336 82.4286 98.5033 82.1697 98.5499 82.1697Z" fill="white"/>
<path id="Vector_27" d="M93.0264 74.4332L102.902 68.8573C102.925 68.8446 102.944 68.8276 102.96 68.8074C102.975 68.7872 102.987 68.7641 102.993 68.7394C103 68.7147 103.002 68.689 102.998 68.6637C102.995 68.6383 102.987 68.6139 102.974 68.5917C102.961 68.5696 102.944 68.5502 102.924 68.5346C102.904 68.519 102.881 68.5075 102.856 68.5009C102.832 68.4942 102.806 68.4925 102.78 68.4957C102.755 68.499 102.731 68.5073 102.709 68.52L92.8364 74.092C92.5569 74.251 92.2475 74.3503 91.9276 74.3837C91.6078 74.4171 91.2845 74.3839 90.9782 74.286C90.6719 74.1882 90.3891 74.0279 90.1479 73.8153C89.9066 73.6027 89.712 73.3424 89.5764 73.0509L84.7799 62.7755C84.7692 62.7524 84.754 62.7316 84.7352 62.7144C84.7164 62.6972 84.6944 62.6838 84.6705 62.6751C84.6466 62.6663 84.6211 62.6624 84.5957 62.6635C84.5702 62.6646 84.5452 62.6707 84.5221 62.6815C84.499 62.6922 84.4782 62.7074 84.461 62.7262C84.4438 62.745 84.4304 62.767 84.4217 62.7909C84.4129 62.8149 84.409 62.8403 84.4101 62.8657C84.4112 62.8912 84.4173 62.9162 84.4281 62.9393L89.2236 73.2195C89.3829 73.5587 89.6105 73.8613 89.8921 74.1084C90.1737 74.3556 90.5033 74.5419 90.8603 74.6558C91.2172 74.7698 91.5938 74.8088 91.9666 74.7705C92.3393 74.7322 92.7001 74.6173 93.0264 74.4332Z" fill="white"/>
<path id="Vector_28" d="M80.3445 76.3372C80.423 76.3372 79.8598 76.6425 88.717 71.6386C88.7391 71.6259 88.7585 71.6089 88.7741 71.5887C88.7897 71.5684 88.8012 71.5453 88.8078 71.5207C88.8145 71.496 88.8162 71.4703 88.813 71.4449C88.8097 71.4196 88.8014 71.3951 88.7887 71.373C88.776 71.3508 88.759 71.3314 88.7388 71.3158C88.7185 71.3002 88.6954 71.2888 88.6707 71.2821C88.6461 71.2755 88.6203 71.2737 88.595 71.277C88.5697 71.2803 88.5452 71.2885 88.5231 71.3013L80.2456 75.9746C80.2081 75.9958 80.1787 76.029 80.1622 76.0688C80.1456 76.1086 80.1428 76.1527 80.1541 76.1943C80.1654 76.2359 80.1903 76.2725 80.2248 76.2984C80.2593 76.3243 80.3014 76.3379 80.3445 76.3372ZM98.5483 82.1699C98.581 82.1699 98.6131 82.1616 98.6417 82.1459C98.6703 82.1302 98.6945 82.1075 98.712 82.0799C98.7295 82.0524 98.7397 82.0209 98.7418 81.9883C98.7439 81.9557 98.7377 81.9232 98.7238 81.8936L94.7038 73.2807C94.6939 73.2564 94.6791 73.2343 94.6604 73.2159C94.6417 73.1974 94.6195 73.183 94.595 73.1734C94.5706 73.1638 94.5444 73.1593 94.5181 73.1601C94.4919 73.161 94.4661 73.1671 94.4423 73.1782C94.4185 73.1893 94.3972 73.2052 94.3797 73.2248C94.3622 73.2444 94.3488 73.2673 94.3405 73.2922C94.3321 73.3171 94.3289 73.3435 94.331 73.3697C94.3332 73.3958 94.3406 73.4213 94.3529 73.4445L98.3729 82.0574C98.3884 82.0909 98.4131 82.1193 98.4442 82.1392C98.4753 82.1592 98.5114 82.1698 98.5483 82.1699Z" fill="white"/>
</g>
</svg>
