<?xml version="1.0" encoding="utf-8"?>
<!-- Generator: Adobe Illustrator 24.3.0, SVG Export Plug-In . SVG Version: 6.00 Build 0)  -->
<svg version="1.1" id="Layer_1" xmlns="http://www.w3.org/2000/svg" xmlns:xlink="http://www.w3.org/1999/xlink" x="0px" y="0px"
	 viewBox="0 0 20 20" style="enable-background:new 0 0 20 20;" xml:space="preserve">
<style type="text/css">
	.st0{fill-rule:evenodd;clip-rule:evenodd;}
</style>
<path d="M13.8,11c0-0.2-0.1-0.4-0.2-0.5c-0.1-0.1-0.3-0.2-0.5-0.2H6.9c-0.2,0-0.4,0.1-0.5,0.2c-0.1,0.1-0.2,0.3-0.2,0.5
	c0,0.2,0.1,0.4,0.2,0.5c0.1,0.1,0.3,0.2,0.5,0.2h6.2c0.2,0,0.4-0.1,0.5-0.2C13.8,11.4,13.8,11.2,13.8,11z M13.8,15.1
	c0-0.2-0.1-0.4-0.2-0.5c-0.1-0.1-0.3-0.2-0.5-0.2H6.9c-0.2,0-0.4,0.1-0.5,0.2c-0.1,0.1-0.2,0.3-0.2,0.5s0.1,0.4,0.2,0.5
	c0.1,0.1,0.3,0.2,0.5,0.2h6.2c0.2,0,0.4-0.1,0.5-0.2C13.8,15.5,13.8,15.3,13.8,15.1z"/>
<path class="st0" d="M4.9,0c-0.7,0-1.5,0.3-2,0.8S2,2.1,2,2.8v14.4c0,0.7,0.3,1.5,0.8,2s1.2,0.8,2,0.8h10.3c0.7,0,1.5-0.3,2-0.8
	s0.8-1.2,0.8-2V5.9c0-0.4-0.1-0.8-0.4-1.1l-3.1-4.1c-0.2-0.2-0.4-0.4-0.6-0.5C13.6,0.1,13.4,0,13.1,0H4.9z M3.6,2.8
	c0-0.7,0.6-1.3,1.3-1.3h7.4V6c0,0.4,0.3,0.8,0.8,0.8h3.3v10.4c0,0.7-0.6,1.3-1.3,1.3H4.9c-0.7,0-1.3-0.6-1.3-1.3V2.8z"/>
</svg>
