<?xml version="1.0" encoding="utf-8"?>
<!-- Generator: Adobe Illustrator 24.3.0, SVG Export Plug-In . SVG Version: 6.00 Build 0)  -->
<svg version="1.1" id="Layer_1" xmlns="http://www.w3.org/2000/svg" xmlns:xlink="http://www.w3.org/1999/xlink" x="0px" y="0px"
	 viewBox="0 0 20 20" style="enable-background:new 0 0 20 20;" xml:space="preserve">
<path d="M18.6,2.9H1.4C1,2.9,0.7,3,0.4,3.3C0.2,3.5,0,3.9,0,4.3v11.4c0,0.4,0.2,0.7,0.4,1s0.6,0.4,1,0.4h17.1c0.4,0,0.7-0.2,1-0.4
	s0.4-0.6,0.4-1V4.3c0-0.4-0.2-0.7-0.4-1C19.3,3,19,2.9,18.6,2.9z M17,4.3l-7,4.8L3,4.3H17z M1.4,15.7V4.9l8.2,5.7
	c0.1,0.1,0.3,0.1,0.4,0.1c0.1,0,0.3,0,0.4-0.1l8.2-5.7v10.8H1.4z"/>
</svg>
