<?xml version="1.0" encoding="utf-8"?>
<!-- Generator: Adobe Illustrator 24.3.0, SVG Export Plug-In . SVG Version: 6.00 Build 0)  -->
<svg version="1.1" id="list" xmlns="http://www.w3.org/2000/svg" xmlns:xlink="http://www.w3.org/1999/xlink" x="0px" y="0px"
	 viewBox="0 0 512 512" style="enable-background:new 0 0 512 512;" xml:space="preserve">
<path d="M510,92.2L510,92.2l0-0.2c0.1-6.5-4.1-12.5-10.3-14.5L260.6,0.3c-1.5-0.5-3-0.7-4.6-0.7c-1.6,0-3.3,0.2-4.8,0.7L12.2,77.6
	l0,0l0,0C6,79.6,1.8,85.5,2,91.9L2,92v0.1v326.7c0,6.6,4.3,12.6,10.5,14.7l239,77.3c1.9,0.6,3.6,0.8,4.8,0.8c1.3,0,2.9-0.3,4.8-0.8
	l238.6-77.3c6.2-2,10.4-7.9,10.2-14.5l0-0.1v-0.1V92.2z M237.7,186.2v274.6v12.8l-12.2-3.9L39.5,409.8l-6.5-2.1v-6.8V126.1v-12.8
	l12.2,3.9l185.9,60.1l6.5,2.1V186.2z M259,152l-2.9,0.9l-2.9-0.9L94.6,100.8L67,91.9l27.5-8.9L253.2,32l2.9-0.9L259,32l158.7,51.3
	l27.5,8.9l-27.5,8.9L259,152z M479.2,126.3v274.6v6.8l-6.5,2.1l-192,62.2l-12.2,4v-12.8V188.4v-6.8l6.5-2.1l192-62.2l12.2-4V126.3z"
	/>
</svg>
