<?xml version="1.0" encoding="utf-8"?>
<!-- Generator: Adobe Illustrator 24.3.0, SVG Export Plug-In . SVG Version: 6.00 Build 0)  -->
<svg version="1.1" id="message" xmlns="http://www.w3.org/2000/svg" xmlns:xlink="http://www.w3.org/1999/xlink" x="0px" y="0px"
	 viewBox="0 0 24 22.8" style="enable-background:new 0 0 24 22.8;" xml:space="preserve">
<style type="text/css">
	.st0{fill:#FFFFFF;}
</style>
<g>
	<path class="st0" d="M20.4,0H3.6C1.6,0,0,1.6,0,3.6v18c0,0.4,0.2,0.8,0.6,1c0.2,0.1,0.4,0.2,0.6,0.2c0.2,0,0.4-0.1,0.6-0.2l5.4-3.3
		c0.2-0.1,0.4-0.2,0.7-0.2h12.5c2,0,3.6-1.6,3.6-3.6v-12C24,1.6,22.4,0,20.4,0z M7.2,10.8C6.5,10.8,6,10.3,6,9.6
		c0-0.7,0.5-1.2,1.2-1.2c0.7,0,1.2,0.5,1.2,1.2C8.4,10.3,7.9,10.8,7.2,10.8z M12,10.8c-0.7,0-1.2-0.5-1.2-1.2c0-0.7,0.5-1.2,1.2-1.2
		s1.2,0.5,1.2,1.2C13.2,10.3,12.7,10.8,12,10.8z M16.8,10.8c-0.7,0-1.2-0.5-1.2-1.2c0-0.7,0.5-1.2,1.2-1.2c0.7,0,1.2,0.5,1.2,1.2
		C18,10.3,17.5,10.8,16.8,10.8z"/>
</g>
</svg>
