<?xml version="1.0" encoding="utf-8"?>
<!-- Generator: Adobe Illustrator 24.3.0, SVG Export Plug-In . SVG Version: 6.00 Build 0)  -->
<svg version="1.1" id="Layer_1" xmlns="http://www.w3.org/2000/svg" xmlns:xlink="http://www.w3.org/1999/xlink" x="0px" y="0px"
	 viewBox="0 0 20 20" style="enable-background:new 0 0 20 20;" xml:space="preserve">
<style type="text/css">
	.st0{fill-rule:evenodd;clip-rule:evenodd;}
</style>
<path class="st0" d="M10,0C8.8,0,7.7,0.5,6.9,1.3C6,2.1,5.6,3.2,5.6,4.4c0,1.2,0.5,2.3,1.3,3.1c0.8,0.8,2,1.3,3.1,1.3
	c1.2,0,2.3-0.5,3.1-1.3c0.8-0.8,1.3-2,1.3-3.1c0-1.2-0.5-2.3-1.3-3.1C12.3,0.5,11.2,0,10,0z M7,4.4c0-0.8,0.3-1.6,0.9-2.1
	C8.4,1.7,9.2,1.4,10,1.4c0.8,0,1.6,0.3,2.1,0.9S13,3.6,13,4.4c0,0.8-0.3,1.6-0.9,2.1S10.8,7.4,10,7.4c-0.8,0-1.6-0.3-2.1-0.9
	C7.3,6,7,5.2,7,4.4z M10,10.2c-2.2,0-4.1,0.5-5.6,1.3c-1.4,0.8-2.5,2-2.5,3.6v0.1c0,1.1,0,2.4,1.2,3.4c0.6,0.5,1.4,0.8,2.5,1
	C6.7,19.9,8.1,20,10,20c1.9,0,3.3-0.1,4.4-0.3c1.1-0.2,1.9-0.6,2.5-1c1.2-1,1.2-2.3,1.2-3.4v-0.1c0-1.5-1.1-2.8-2.5-3.6
	C14.1,10.7,12.2,10.2,10,10.2z M3.3,15.1c0-0.8,0.6-1.7,1.8-2.4c1.2-0.7,3-1.1,4.9-1.1c2,0,3.7,0.4,4.9,1.1c1.2,0.7,1.8,1.6,1.8,2.4
	c0,1.2,0,1.9-0.7,2.4c-0.3,0.3-0.9,0.6-1.9,0.8c-1,0.2-2.3,0.3-4.2,0.3c-1.8,0-3.2-0.1-4.2-0.3c-1-0.2-1.6-0.5-1.9-0.8
	C3.3,17,3.3,16.3,3.3,15.1z"/>
</svg>
