<?xml version="1.0" encoding="utf-8"?>
<!-- Generator: Adobe Illustrator 24.3.0, SVG Export Plug-In . SVG Version: 6.00 Build 0)  -->
<svg version="1.1" id="Layer_1" xmlns="http://www.w3.org/2000/svg" xmlns:xlink="http://www.w3.org/1999/xlink" x="0px" y="0px"
	 viewBox="0 0 927.2 719" style="enable-background:new 0 0 927.2 719;" xml:space="preserve">
<style type="text/css">
	.st0{fill:#0D1B3E;}
	.st1{fill:#78ADD3;}
	.st2{fill:#FFFFFF;}
	.st3{fill:#1F1F39;}
	.st4{fill:#3B3B4C;}
	.st5{fill:#EFAEA6;}
	.st6{opacity:0.14;fill:#1F1F39;enable-background:new    ;}
	.st7{opacity:0.57;fill:#1F1F39;enable-background:new    ;}
	.st8{fill:#201B2C;}
	.st9{fill:#EEADA5;}
	.st10{fill:#54353A;}
	.st11{fill:#775155;}
	.st12{opacity:0.28;fill:#1F1F39;enable-background:new    ;}
	.st13{fill:#0771A5;}
	.st14{opacity:0.18;fill:#1F1F39;enable-background:new    ;}
	.st15{fill:#F4AD00;}
	.st16{opacity:0.67;}
	.st17{opacity:0.22;fill:#E56E1F;enable-background:new    ;}
	.st18{opacity:0.1;fill:#32323F;enable-background:new    ;}
	.st19{fill:#F5B1B4;}
	.st20{fill:#0067A7;}
	.st21{fill:#333344;}
	.st22{opacity:0.28;fill:#070716;enable-background:new    ;}
	.st23{fill:#603A3E;}
	.st24{opacity:0.17;fill:#070716;enable-background:new    ;}
	.st25{fill:#2E2E49;}
	.st26{opacity:0.46;fill:#1F1F39;enable-background:new    ;}
	.st27{opacity:0.62;fill:#1F1F39;enable-background:new    ;}
	.st28{fill:#0267A4;}
	.st29{opacity:0.3;fill:#1F1F39;enable-background:new    ;}
	.st30{fill:#E84E19;}
</style>
<g>
	<g>
		<path class="st0" d="M462.3,696.2"/>
		<path class="st1" d="M476.8,707.2"/>
		<path class="st2" d="M437.2,693c-0.3-6.1,0.8-21.3,0.8-21.3l16,0.2l-1.9,22.9l-10.9,6.8L437.2,693z"/>
		<path class="st3" d="M436,690.4c-1.7-0.4-1,1.2-1.6,3.7c-1.4,5.8-22.6,5.9-25.8,6.4c-1.6,0.3-4.3,8.8,3.9,8.8
			c7.1,0,29.7,0.1,37.5,0c1.6,0,3-1.1,3.4-2.7c1.4-5.6,1.1-14.3-1.1-14.5C449.1,691.1,443,692.1,436,690.4z"/>
		<g>
			<path class="st2" d="M594,679.4c-4.8-3.7-15.7-14.5-15.7-14.5l10.5-12.1l16.2,16.3l-1.9,12.7L594,679.4z"/>
			<path class="st3" d="M591.3,678.6c-1.4,1,0.3,1.5,1.8,3.6c3.5,4.9-10.2,21-11.8,23.8c-0.9,1.4,3.9,9,9.2,2.8
				c4.6-5.4,19.3-22.6,24.3-28.5c1-1.2,1.1-3,0.2-4.3c-3.3-4.7-10.2-10.1-11.7-8.6C600.2,669.1,597.1,674.4,591.3,678.6z"/>
		</g>
		<path class="st4" d="M586.8,675.5c0,0-51.2-42.2-66.1-75.5c-9.6-25.6-12.2-54.5-17.2-78.8c0,0-22.8,55.2-30.5,74.1
			c-7.7,18.8-13.7,87.3-14.1,91.4c-0.4,4.1-24.2-2.3-23.7-5.1s11.2-81.2,13-94.4c1.8-13.3,22.2-105.1,31.3-130.6l10,2.6
			c0,0,50.4,7.2,51,10.8c0.3,1.8,0.5,3.7,0.7,5.6c0,0.1,0,0.1,0,0.2c1.1,9.4,1.6,20.7,1.9,32.5c0.8,33.9-0.8,72,0.5,82.1
			c1.8,14.4,49.2,57.4,58.3,69.6C603.6,660.5,598.2,668.3,586.8,675.5z"/>
		<g>
			<path class="st5" d="M512.4,369.6l14-0.5c1.6-6,8.6-19.2,9-24.8c0.4-6.2-0.2-6-0.2-6l-10.4,3.2l-4.9,1.5c0,0-0.1,2.5-2.1,6.3
				c-1.4,2.6-3.7,5.9-7.6,9.4C507.3,361.3,512.4,369.6,512.4,369.6z"/>
			<path class="st6" d="M519.8,343c0,0-0.4,3.1-2.4,6.9c7.2,5.7,13.5,0.7,12.1-2.1c-0.9-1.8-4.8-6.3-4.8-6.3L519.8,343z"/>
			<g>
				<path class="st5" d="M528.7,319.7c-3.7,3.6-14.4,7.5-11.7,9.8s-7.8,7.7-5.1,10.2c6.6,6.1,18.2,8.5,21.9,6s11.2-12.2,11.2-12.2
					L528.7,319.7z"/>
				<path class="st3" d="M532.5,329.5c-2.4-1.6-2.9-1.1-3.8-3.2c-0.9-2,3.5-1.9,1.1-4.7c-2.4-2.9-5.4-5.7-2.9-9.2
					c3.6-5,7.1-0.8,9.2,2c1.3,1.8,4.8-1.5,8,1.5c2.5,2.3,0.9,3.6,3,5.8c1.3,1.3,5.9,1.4,6.7,4.9c1.4,6.5-5.3,7.5-4.8,13.6
					c0.6,7.2-15.5,7.7-15.7,5.8c-0.2-2.2,5-4.7,4.6-6.6c-0.6-3-2.2-1.6-5.1-1.5c-3,0.1-6.2-2.4-1.6-3.7
					C535.8,332.7,534.7,331,532.5,329.5z"/>
			</g>
		</g>
		<path class="st7" d="M495.1,539.3c4.8-10.5,8.3-18.1,8.3-18.1c-1.4-7.3-2.4-15.9-2.4-15.9S496.1,526.7,495.1,539.3z"/>
		<g>
			<path class="st8" d="M604.3,515.4l-14,0.7c-2.2,0.1-3.8,2.7-3.6,5.7l0.4,8.5c0,0,0,0.1,0.1,0.1l2.6-0.1c0,0,0.1,0,0.1-0.1l-0.3-6
				c-0.1-2.3,1.1-4.2,2.7-4.3l10.4-0.5c1.6-0.1,3,1.7,3.1,4l0.3,6c0,0,0,0.1,0.1,0.1l2.6-0.1c0,0,0.1,0,0.1-0.1l-0.4-8.5
				C608.4,517.6,606.5,515.3,604.3,515.4z"/>
			<path class="st9" d="M593.1,501.3C593.1,501.3,593.1,501.4,593.1,501.3c-0.4,3.2-1.3,2.4-2.4,6.5c-1.1,4.1-4.5,9.9-2.4,10.5
				s3.7-1.9,4.8-2.4c1-0.5-1.3,1.9,0,3.9s6.6,3,9,1.4s4-4.8,4.1-8.9c0.1-4.1-2-9.6-2.4-11.4C603.4,499.2,593.9,501.2,593.1,501.3z"
				/>
			<path class="st8" d="M590.4,516.1c-2.2,0.1-3.8,2.7-3.6,5.7l0.4,8.5c0,0,0,0.1,0.1,0.1l2.6-0.1c0,0,0.1,0,0.1-0.1l-0.3-6
				c-0.1-2.3,1.1-4.2,2.7-4.3l0,0l0.9-3.8c0,0,0-0.1-0.1-0.1L590.4,516.1z"/>
			<g>
				<path class="st10" d="M554.9,535.4l1.8,39.3c0.1,2.4,2.1,4.2,4.5,4.1h0.1l70.2-2.3c7.9-0.4,7.6-6,7.5-8.3l-0.6-37.2
					c-0.1-2.3-3.2-8.3-9.5-8l-62.5,2.8L564,526C558.8,526.2,554.6,530.2,554.9,535.4z"/>
				<path class="st11" d="M554.9,535.4l1.8,39.3c0.1,2.4,2.1,4.2,4.5,4.1l0,0c0,0,0.1,0,0.1-0.1c0.7-2.4,1-6.1,0.4-11.8
					c-1.6-14,1.7-30,4.7-41c0,0,0-0.1-0.1-0.1L564,526C558.8,526.2,554.6,530.2,554.9,535.4z"/>
			</g>
		</g>
		<path class="st9" d="M480.4,252.7c0,0,0.6-6.7,0.2-12.1c-0.3-4.1,5.3-11.8,4.8-13.5c-0.7-2.1-3.9-1.2-4.9-0.7
			c-1,0.6,0.3-5.1-1.1-6.9c-2-2.7-10.1-2.8-11.7,0c-1.5,2.5-1.2,6.9-1,11s0.8,13.1,1.1,17.7C468,250,479.6,252.9,480.4,252.7z"/>
		<path class="st12" d="M543,508.2c-7.4-5.4-23.4-14.7-28.5-32.5l26.6-0.2c0,0.1,0,0.1,0,0.2C542.2,485.1,542.7,496.4,543,508.2z"/>
		<path class="st2" d="M533.4,356c-5.1-2.7-9,3.4-13.4,2.6c-2.7-0.5-2-2.9-2.9-4.5c-0.6-1-2.1-0.7-4.3-1.1
			c-5.6-0.9-33.3,107.9-33.3,107.9s14.2,8.1,25.5,10.6c11.2,2.5,30.1,2.8,30.7-1.2s6.9-106,6.9-106S538.4,358.8,533.4,356z"/>
		<path class="st13" d="M607.7,499.7C607.7,499.7,607.6,499.7,607.7,499.7c-2.1,1.5-11.6,1.6-17.7,1.5c0,0-0.1,0-0.1-0.1
			c-0.5-4.7-0.4-20.9-4.8-44.2c-4.3-16.4-27.1-41-29.2-43v0.1c0,0.2-0.1,0.5-0.2,0.9l0,0c0,0.1,0,0.2-0.1,0.2l0,0l0,0
			c0,0.1-0.1,0.2-0.1,0.4c-0.1,0.2-0.1,0.3-0.2,0.5c-0.3,0.9-0.8,1.9-1.3,3.1c-0.1,0.2-0.2,0.5-0.3,0.7c-1.3,2.8-2.9,6.2-4.3,9.6
			c-0.1,0.3-0.3,0.7-0.4,1c-0.2,0.5-0.4,1-0.6,1.5c-0.2,0.5-0.4,1-0.6,1.5c0,0,0,0,0,0.1c-0.4,1.1-0.8,2.7-1.1,4.6
			c-0.1,0.7-0.2,1.4-0.3,2.2c-1.7,12.5,7.4,39.1,8.2,46.1c1,8.7-8,9.1-11.5,6.3c-2.9-2.3-19.4-6-25.8-12.5
			c-6.5-6.5-1.9-18.6-0.1-27.1c1.9-8.6-4.2-27,4.5-42.6c10.8-19.6,10.6-48.2,12.7-54.1c0,0,21.6,14.5,30.1,26
			c12.9,17.4,37.4,56.1,39.1,70.4C605.3,468,610.6,491.2,607.7,499.7z"/>
		<path class="st12" d="M555.9,414l-0.3,1.1l0,0l0,0c0,0.1-0.1,0.2-0.1,0.4c-0.1,0.2-0.1,0.3-0.2,0.5c-0.3,0.9-0.8,1.9-1.3,3.1
			c-0.1,0.2-0.2,0.5-0.3,0.7c-1.3,2.8-2.9,6.2-4.3,9.6c-0.1,0.3-0.3,0.7-0.4,1c-0.2,0.5-0.4,1-0.6,1.5c-0.2,0.5-0.4,1-0.6,1.5
			c0,0,0,0,0,0.1c-0.4,1.1-0.8,2.7-1.1,4.6c-0.6-10.7-0.9-27.6,0.6-31.9C547.4,406.2,553.4,410.5,555.9,414z"/>
		<path class="st13" d="M512.9,353.2c-17.1-21.4-24.7-41.2-27.1-53.4c-2.4-12.1-1.4-55-1.4-59c0-2.4-19.1-2.1-18.9,1.7
			c0.2,2.5-2,44.7,0.9,61c2.4,13.5,15.1,56.8,18.9,64.8c4.2,8.9-1.3,51.1-4,58.1c-2.8,7-12.1,41.7-5.8,47c5.9,4.9,21.6,8,24.6,4.4
			c2.8-3.3-9.1-42.6-5-61.3c4.1-18.6,4-23,10.5-43.2"/>
		<g>
			<path class="st14" d="M521.1,360.4c0.5-0.4,6,10.3,13.3,13.8c2,1,4.2,1.6,6.5,1.8c6.6,0.4,17.2-0.5,17.2-0.5s-5-5-8.5-7.3
				c-6,1.9-4.6,1.5-8,1.1c-2.6-0.3-5-1-7.2-2c-4.2-1.8-7.8-4.5-10.6-6.9c-1.4-1.2-1.6-3-3.3-3.1
				C518.3,357.1,520.4,360.8,521.1,360.4z"/>
			<path class="st15" d="M517.7,358.2c0.1-1,0.8-2.7,3-2.7c1.7,0.1,1.8,0.7,3.2,1.9c4.2,3.6,10.4,8.1,17.8,8.9
				c7.4,0.8,24.2-8.9,35.2-6.5c10.9,2.4,14.3,12.2,30,14.7c15.8,2.5,32.7-4.2,37.4-3.4c4.7,0.8,7.5,1.8,7.4,3.7s-2.4,4.9-5.7,6.2
				c-3.3,1.3-32.1,3.3-39.7,2.2c-12.4-1.7-23.1-12.9-31.1-13.6s-24.8,3.9-34.2,3.4c-10.5-0.6-19-12.8-19.7-12.3s-1.3,0.9-2.7,0.6
				C517.8,361.1,517.7,359.2,517.7,358.2z"/>
		</g>
		<path class="st9" d="M480.3,230.3c2.3-3.9,0.6-2.8,1-5.2c0.2-1.7,1.1-2.2,2.9-0.7c1.7,1.4,1.6,2.4,1.3,3.4
			c-0.3,1.3-1.2,3.2-1.2,3.2L480.3,230.3z"/>
		<path class="st9" d="M479.7,220.5c0.7,1.1,0.5,3.8,0.5,4.3c0,0.8,0.1,2.7-2.3,3.3c-2.7,0.6-9.2,1-10.2-0.3c-1-1.2-1.4-5.5-0.7-6.9
			C467.8,219.5,479.7,220.5,479.7,220.5z"/>
		<g>
			<path class="st2" d="M359.6,140.7c16.8-2.6,19.2-10.2,22.3-33.7c2.2,22.3,5,30.7,22.1,33.3c-14.9,6.4-20.2,8.7-22.8,34.4
				C377.5,148.6,374.2,146.3,359.6,140.7z"/>
			<path class="st5" d="M505.9,226.5c0,0-3.3-3.2-4.6-3.2c-1.4,0-2.7,1.1-0.1,5C503.9,232.2,505.9,226.5,505.9,226.5z"/>
			<g>
				<path class="st15" d="M483.1,39.6c17.7-13.9,19.9,8.9,19.4,24.7c-0.1,3.9-2.5,7.8-6.2,10.1c-11.7,7.3-36.8,23.1-36.8,23.1
					C457.4,92,465,54,483.1,39.6z M632.4,218.2c0.3-0.4,0.5-0.8,0.7-1.2s0.4-0.8,0.5-1.2c4.7-13.8-23.3-26.4-39.7-35.7
					c-1.8-1-1.6-3.5,0.2-4.9c3.6-2.7,6-8.1,5.6-12.5c-0.1-0.7-0.2-1.3-0.4-1.9c0-0.2-0.1-0.3-0.2-0.4c-0.1-0.2-0.1-0.3-0.2-0.4
					c-0.2-0.4-0.4-0.9-0.7-1.3c0-0.1,0-0.1-0.1-0.1c-0.4-0.7-0.8-1.4-1.2-2.1c-0.8-1.4-1.6-2.9-2.6-4.5c-0.2-0.3-0.4-0.7-0.6-1
					c-0.4-0.6-0.8-1.3-1.1-1.9c-0.2-0.4-0.5-0.8-0.7-1.2s-0.4-0.7-0.7-1.1c-0.4-0.7-0.9-1.5-1.4-2.3l-0.3-0.5
					c-18-29.8-52.1-81.9-54-85.2c-2-3.5-7.1-4.2-11.1-1.7C500,71.2,531.5-22.9,484,12c-22.3,17-37.4,64.3-38.9,84.2
					c-0.5,6.4-3.6,12.7-8.7,17.6c-18.6,17.9-24.6,44.1-13.4,64.3c0.3,0.5,0.5,1.1,0.7,1.6c0.2,0.6,0.3,1.1,0.3,1.7
					c0.1,1.2-0.1,2.4-0.7,3.6c-1.7,3.9-5.7,5.5-11.7,8.7c-0.2,0.1-0.5,0.3-0.8,0.4c-0.2,0.1-0.3,0.2-0.5,0.2
					c-0.2,0.1-0.4,0.2-0.6,0.2c-0.7,0.2-1.3,0.4-2,0.5c-0.2,0-0.4,0.1-0.7,0.1c-1.2,0.1-2.3,0-3.4-0.2c-0.2-0.1-0.5-0.1-0.7-0.2l0,0
					c-0.2-0.1-0.4-0.1-0.6-0.2c-0.3-0.1-0.5-0.2-0.8-0.4c-0.7-0.3-1.3-0.8-1.8-1.3c-13.9-13.5-37.1-16.9-57.6-3.9
					c-52.6,39.9-33.9,1.2-72.6,2.1c-66,22.6,113,246.4,97.2,121c-0.9-7.2,3.1-14.8,10-19.2c11.7-7.4,22.1-13.8,22.4-14.3
					c3.1-1.9,5.8-4.1,8.3-6.4c7-6.6,11.8-14.8,13.9-23.2c1.9-7.7,1.7-15.6-1-22.8c-0.1-0.3-0.2-0.5-0.3-0.8
					c-0.2-0.4-0.4-0.9-0.6-1.3c-0.1-0.2-0.2-0.4-0.2-0.6c-0.1-0.2-0.1-0.4-0.2-0.6c-0.1-0.4-0.1-0.8-0.1-1.1c0-0.4,0-0.8,0.1-1.2
					c0.3-2,1.6-3.8,3.5-5.2c3.1-2.2,7.1-4.5,10.3-6.5c0.6-0.4,1.2-0.7,1.7-1c0.2-0.1,0.3-0.2,0.5-0.3c0.3-0.2,0.7-0.3,1-0.4
					c2.2-0.7,4.5-0.1,6,1.4c0,0,0.1,0,0.1,0.1c13,20.7,40.7,27.4,66,17.6c6.1-2.4,12.5-2.4,18-0.2c17.9,7.4,68.1,14.7,93.5,1.8
					c0.4-0.2,0.9-0.4,1.3-0.7C626.8,224.3,630.4,221.2,632.4,218.2z M594.5,216.9c-21.1,10.6-56-0.7-62.4-2.9
					c-1.7-1,21.3-14.6,34.2-22.4c5.6-3.4,12.4-4,17.7-1.4C597.8,196.9,613.2,207.8,594.5,216.9z"/>
				<g class="st16">
					<g>
						<path class="st2" d="M436.5,155.3c-0.1-0.2-0.3-0.5-0.3-0.8c-0.9-3.1-0.8-6.7,0.5-10.6c0.6-2,2.8-3.4,5-3.1
							c2.1,0.3,3.3,2.2,2.7,4.3c-0.8,2.6-0.9,4.8-0.4,6.6c0.6,1.9-0.7,4.1-2.8,4.9C439.2,157.2,437.3,156.6,436.5,155.3z"/>
					</g>
					<g>
						<path class="st2" d="M443.9,133.9c-0.7-1.2-0.6-2.8,0.4-4.1c3.4-4.4,7.2-8.1,10.3-10.1l51.7-32.5c1.9-1.2,4.4-0.9,5.4,0.8
							c1,1.7,0.3,4-1.6,5.2l-51.7,32.5c-1.6,1-4.6,3.7-7.8,7.8c-1.4,1.8-3.9,2.4-5.6,1.3C444.5,134.6,444.1,134.3,443.9,133.9z"/>
					</g>
				</g>
				<path class="st17" d="M632.4,218.2c0.3-0.4,0.5-0.8,0.7-1.2s0.4-0.8,0.5-1.2c4.7-13.8-23.3-26.4-39.7-35.7
					c-1.8-1-1.6-3.5,0.2-4.9c3.6-2.7,6-8.1,5.6-12.5c-0.1-0.7-0.2-1.3-0.4-1.9c0-0.2-0.1-0.3-0.2-0.4c-0.1-0.2-0.1-0.3-0.2-0.4
					c-0.2-0.4-0.4-0.9-0.7-1.3c0-0.1,0-0.1-0.1-0.1c-0.4-0.7-0.7-1.4-1.2-2.1c-0.8-1.4-1.6-2.9-2.6-4.5c-0.2-0.3-0.4-0.7-0.6-1
					c-0.4-0.6-0.8-1.3-1.1-1.9c-0.2-0.4-0.5-0.8-0.7-1.2s-0.4-0.7-0.7-1.1c-0.4-0.7-0.9-1.5-1.4-2.3c-0.1-0.2-0.2-0.4-0.3-0.5l0,0
					C542,175.3,470.9,229.1,423,178.1c0.3,0.5,0.5,1.1,0.7,1.6c0.2,0.6,0.3,1.1,0.3,1.7c0.1,1.2-0.1,2.4-0.7,3.6
					c-1.7,3.9-5.7,5.5-11.7,8.7c-0.3,0.1-0.5,0.3-0.8,0.4c-0.2,0.1-0.3,0.2-0.5,0.2c-0.2,0.1-0.4,0.2-0.6,0.2
					c-0.7,0.2-1.3,0.4-2,0.5c-0.2,0-0.4,0.1-0.7,0.1c-1.2,0.1-2.3,0-3.4-0.2c-0.2-0.1-0.5-0.1-0.7-0.2l0,0c-0.2,0-0.4-0.1-0.6-0.2
					c-0.3-0.1-0.5-0.2-0.8-0.4c0,0,0,0-0.1,0c3,8,6,14.6,6.9,16c1.4,2.3,4.8,8.2,12,16.1c-0.1-0.3-0.2-0.5-0.3-0.8
					c-0.2-0.4-0.4-0.9-0.5-1.3c-0.1-0.2-0.2-0.4-0.2-0.5c-0.1-0.2-0.1-0.4-0.2-0.6c-0.1-0.4-0.1-0.8-0.1-1.1c0-0.4,0-0.8,0.1-1.2
					c0.3-2,1.6-3.8,3.5-5.2c3.1-2.2,7.1-4.5,10.3-6.5c0.6-0.4,1.2-0.7,1.7-1c0.2-0.1,0.3-0.2,0.5-0.3c0.3-0.2,0.7-0.3,1-0.4
					c2.2-0.7,4.5-0.1,6,1.4c0,0,0.1,0,0.1,0.1c13,20.7,40.7,27.4,66,17.6c6.1-2.4,12.5-2.4,18-0.2c17.9,7.4,68.1,14.7,93.5,1.8
					c0.4-0.2,0.9-0.4,1.3-0.7C626.8,224.3,630.4,221.2,632.4,218.2z M594.5,216.9c-21.1,10.6-56-0.7-62.4-2.9
					c-1.7-1,21.3-14.6,34.2-22.4c5.6-3.4,12.4-4,17.7-1.4C597.8,196.9,613.2,207.8,594.5,216.9z"/>
				<path class="st17" d="M264.3,193.7c48,70.4,85.2,85.1,143.5,78.3c-0.1,0.1-0.1,0.1-0.2,0.2l0,0c-2.5,2.3-5.3,4.5-8.3,6.4
					c-0.2,0.5-10.7,6.9-22.4,14.3c-6.9,4.4-10.9,12-10,19.2C382.2,433.6,214.6,227.1,264.3,193.7z"/>
			</g>
			<path class="st2" d="M547.4,138c8.1-1.1,9.3-4.4,10.8-14.5c1.1,9.6,2.4,13.2,10.6,14.3c-7.2,2.7-9.7,3.7-11,14.8
				C556,141.4,554.5,140.4,547.4,138z"/>
			<path class="st2" d="M320.3,279.7c11.5-1.8,13.2-7,15.3-23.1c1.5,15.3,3.4,21.1,15.1,22.8c-10.2,4.4-13.8,5.9-15.6,23.6
				C332.6,285.1,330.3,283.6,320.3,279.7z"/>
		</g>
		<path class="st18" d="M5.5,708.5c0,2.9,260.6,6.3,513.6,6.3s408.1-2.4,408.1-5.3s-155.1-5.3-408.1-5.3S5.5,705.6,5.5,708.5z"/>
		<g>
			<path class="st19" d="M695.7,298.6c-4.9-19.6,5.3-15.9,4-19.4c-1.2-3.2-8,3.8-4.7-3.1c4.6-9.5-6.6-6.4-9.2-3.3
				c-2.7,3.2-2.7,10.2-1,17.7c1.3,5.8,0.3,9.3,0.3,9.3L695.7,298.6z"/>
			<path class="st5" d="M766.2,569.7c4.3,9.6,9.2,19.5,13.2,29.5c12.2,30.3,90,10.4,93.8,11.6c8.1,2.6,9,5,10.9,7.5l7.2,8.1l6.7-13
				l-9.5-13.9c0,0-84.4-1.9-88.3-10c-1.6-3.2-4.4-13.4-7.3-24.7c-0.8-3.3-1.7-6.7-2.5-10c-3.5-14.2-6.4-27.2-6.4-27.2
				c-0.9-2.1-4-21.6-3.7-23.9c0.9-6.1-10.5-35.8-23.3-27c-21,14.5-18.1,32.9-18.1,32.9s11.4,24.9,25.1,55.2L766.2,569.7z"/>
			<path class="st20" d="M878.5,598.2c2.5-1.8,8.6-5.4,15.4-1.4c6.6,4.3,14.9,5,14.9,5l-0.4,2.5c0,0-11.2-2.1-13.6-0.2
				c1.4,4.1,11.7,20.4,10.8,23.8c-1.3,5.2-5.4,11.8-7.1,13.1c-2,1.5-6.9,4.6-6.6,0.4c0.6-8.1-2.3-16.6-2.3-16.6s0-0.5,0.5-0.5
				c1.1,0.1,3,0.2,2.8-4.5c-0.3-6.2-9.6-16.4-14.4-19.9C877.9,599.5,877.9,598.7,878.5,598.2z"/>
			<g>
				<path class="st5" d="M759.2,484.9l-8,5.6c-0.3,0.2-0.5,0.5-0.7,0.8c-2.5,3.7-16.9,21.8-22.8,30.6c0,0.1-5.7-9.9-10-4.4
					c-5.3,6.8-16.4,45.3-17.4,58.8c-1.2,17.4-6.1,94.6-7.4,99.2c-1.3,4.6-4.1,7.7-11.1,11.6c-0.1,0-0.1,0.1-0.2,0.1l0,0
					c-2.9,1.3-1.9,5.7,1.3,5.6l13.3-0.6c0.3,0,0.6-0.1,0.9-0.2l7.5-3c0.9-0.4,1.6-1.2,1.8-2.2c0,0,19-105.2,20.8-112.5
					s27.7-57.2,27.7-57.2c0.5-0.7,13.4,7.5,14.2,7.5c3,0,10.7-1.7,18.5-18.6c2.4-5.1-4-13.6-6.1-16.3c-0.4-0.5-1-0.9-1.6-1
					l-18.6-4.2C760.7,484.3,759.9,484.5,759.2,484.9z"/>
				<path class="st20" d="M697.7,698.4c-2.7,0-11.3,1.5-17.6,2.3c-2.9,0.3-5.3,0.5-6.6,0.3c-0.1,0-0.2,0-0.4-0.1
					c-3.6-0.9-11.2-3.8-12.2-5.7c-1-2,1.4-5.5,5.4-6.6c1.7-0.5,4.4-0.8,7.1-0.9c2.7-0.2,5.3-0.2,6.4-0.2c0.4,0,0.6,0,0.6,0
					s0.5,0.1,0.3,0.6c-0.4,1-1,2.7,3.3,3.9c5.7,1.6,17.6-3.7,22.1-7c0.5-0.4,1.2-0.1,1.5,0.5c0.9,2.7,2.4,9.5-3.1,14.5
					c-5.8,4.6-8.8,11.9-8.8,11.9l-2.1-1.1C693.6,710.6,698.7,701.2,697.7,698.4z"/>
			</g>
			<path class="st21" d="M796.1,568.4c-2.2,5.1-32.4,2.9-49.6-3.2c-15.8-5.6-41.9-0.5-45.3-9.2c-2.2-5.7,11.8-49.3,27.1-92.4
				c19.8,7.4,51.2-8.9,51.2-8.9s0.2,0.3,0.5,0.9c1.9,3.4,8.7,15.9,12.7,27.7c1.6,4.7,2.8,9.3,3,13.2c0.6,11.2-6.7,33.8-5.8,49.7
				C790.6,556.7,798.6,562.7,796.1,568.4z"/>
			<path class="st2" d="M743.9,369.5l-8.8,4.8L723,422.7c0,0,4.1,29.5,10.8,39.9c8.7,13.5,36.9-1.3,35.7-4.4
				c-11-28.4-15-88.6-15-88.6L743.9,369.5z"/>
			<path class="st22" d="M792.8,483.4c-16.5,8.7-39.6-3-39.6-3l23.8-21.8l3.1-2.8C782,459.1,788.8,471.6,792.8,483.4z"/>
			<g>
				<path class="st8" d="M845.2,469.8c-0.5-0.9-0.8-1.8-0.8-2.6c0-0.7,0.1-1.3,0.4-1.9c0.2-0.3,0.4-0.6,0.7-0.8l1.9-1.6h0.1l0,0
					l0.2-0.2l7.8-6.6l0.1-0.1c0.4-0.3,0.8-0.5,1.3-0.6l0,0c1.5-0.3,3.5,0.6,4.9,2.2l2,2.4l3.2,3.8l-2,1.7l-3.2-3.8l-0.5-0.5
					c-1-1.2-2.4-1.9-3.6-1.7l0,0c-0.1,0-0.2,0-0.3,0.1c-0.3,0.1-0.5,0.2-0.7,0.4l-7,5.9l0,0l-0.6,0.5c-1.2,1-1,3.1,0.4,4.8l0.4,0.5
					l0,0l3.3,3.9l0,0l-2,1.7l-3.3-3.9l-1.9-2.3c-0.1-0.1-0.2-0.3-0.3-0.4C845.5,470.2,845.3,470,845.2,469.8z"/>
				<path class="st9" d="M839,451.8c1.5,2.6,1.6,2.5,3.1,6.2s2.3,9,4.2,8.2s0.6-2.5,1-3.5c0.5-1,0.1,2.2,2.2,3
					c2.1,0.8,6.7-1.5,7.6-4.1c0.9-2.6-1.2-4.7-3.4-7.8c-2.3-3.1-4.5-3.8-6.9-8.5L839,451.8z"/>
				<path class="st8" d="M845.2,469.8c-0.5-0.9-0.8-1.8-0.8-2.6l0,0c0-0.7,0.1-1.4,0.4-1.9c0.2-0.3,0.4-0.6,0.7-0.8l1.9-1.6h0.1l0,0
					l0,0l0.1-0.1l0.3,0.8l0,0l0,0l0,0l0,0l0,0l0.5,1.1l0,0l0.6,1.5c-1.2,1-1,3.1,0.4,4.8l0,0l0.4,0.5l0,0l3.3,3.9l-2,1.7l-3.3-3.9
					l-1.9-2.3c-0.1-0.1-0.2-0.3-0.3-0.4C845.5,470.2,845.3,470,845.2,469.8z"/>
				<g>
					<path class="st23" d="M829.7,499.3l23.8,28.6c1.4,1.7,3.9,1.9,5.6,0.5l0.1-0.1l51.6-41.8c5.8-4.8,2.3-8.8,0.9-10.5L890,448.3
						c-1.4-1.7-7.2-4.5-11.7-0.6l-45.4,37.7l-1.7,1.4C827.4,490.1,826.5,495.4,829.7,499.3z"/>
					<path class="st11" d="M829.7,499.3l23.8,28.6c1.4,1.7,3.9,1.9,5.6,0.5l0.1-0.1c-0.8-2.2-2.7-5.2-6.5-9.2
						c-9.2-9.7-15.9-23.7-19.9-33.6l-1.7,1.4C827.4,490.1,826.5,495.4,829.7,499.3z"/>
				</g>
			</g>
			<path class="st20" d="M823.8,410.8c6.4,10.3,26.6,36.8,26.6,36.8c-4.5,8.1-10.6,9.5-10.7,9.6c-0.1-0.6-25.9-34.5-28.3-38.2
				c-3.4-5.3-31.1-14.7-34.2-12c-3.7,3.2-7.3,19.3-5.7,30.4c0.3,2.3,0.9,4.5,1.8,6.2c4.9,9.8,10.2,10.7,9.6,16
				c-0.6,5.3-27.2,23.5-29.8,20.8s-2.2-38.1-5-46.2c-2.5-7.1-8.4-20.1-4-30.2c3.2-7.5,7.3-23,9.2-30.6c0-0.1,0.1-0.2,0.1-0.3
				c0.6-2.5,1-4.1,1-4.1c2,0.6,4.4,1.5,6.9,2.8c5.6,2.8,12.3,6.9,18.9,11.8C797.7,396.2,819.1,403.1,823.8,410.8z"/>
			<path class="st20" d="M728.1,414.1c-3,9.9,8.3,33.2,9.6,51.5c0,0.2,0,0.5,0.1,0.7c0.2,3.1,0,6-0.7,8.7c-1,3.6-6.1,6.2-9.6,6.6
				c-2.4,0.3-4.1-0.8-3.8-3.3c3.2-23.1-8.7-42-9.1-67.4c-0.1-5.7,3.4-13.9,2.3-17.8c-1.5-5.5-18.5-43.2-23.6-54.1
				c-3.7-8-10.6-35-10.3-46.5c0.1-4,13.4-3.5,13.5-1c0.2,9.4,7,35,9.9,42.4c3.6,9.1,20.2,33.7,30,39.8c0.3,0.2-0.8,2.1-1.1,5.6
				c-0.2,2.7-0.8,6-1.1,9.7C733.3,399.7,731.7,402.4,728.1,414.1z"/>
			<path class="st24" d="M771.6,437.4c-2.5-4.1-6.1-10.3-6.3-12.7c-0.3-3.7,5-13.1,12-17.7C773.6,410.3,770,426.4,771.6,437.4z"/>
			<path class="st24" d="M780.2,383.4c-16.2-0.2-23.1-3.3-26.9-10.1c-0.1-0.1-0.1-0.2-0.2-0.3h0.2l7.9-1.4
				C766.9,374.4,773.5,378.6,780.2,383.4z"/>
			<g>
				<path class="st19" d="M731.5,336.8c-1.1,3.6,0.9,5.6-1.5,8.9c-1.9,2.6-3.8,3.1-3.1,4.2c0.7,1.2,3.1,0.6,2.9,1.9
					c-0.2,1.2-1.2,2.1,0.2,2.7c0.9,0.3,1.9,0.3,0.8,1c-0.4,0.3-1.3-0.1-0.5,1.4s-1.6,6.3,0.9,7.1c1.2,0.4,5.5-2.4,7.7-0.6
					c2,1.6-2.1,7.8-2.7,10.6c-0.6,2.8,0.2,17.9,1.7,17.5c3.9-1,4.7-10,14.7-17.5c11.9-9-2.3-25.1-2.3-25.1l-3.7-9.5L731.5,336.8z"/>
				<path class="st25" d="M829.1,381.4c-4.1,4-23.1-12.1-34.6,0.1c-4.6,4.9-9.3-0.4-14.3-1.6c-0.8-0.2-1.7-0.3-2.5-0.2
					c-3.2,0.3-5,1.2-7.8,1.2l0,0c-0.7,0-1.4,0-2.2-0.2c-0.7-0.1-1.4-0.2-2.2-0.4c-1.5-0.3-3.2-0.8-5.3-1.6c-2.2-0.8-4.1-2.1-5.8-3.7
					l0,0c-0.1-0.1-0.1-0.1-0.2-0.2c-5.9-6-8.6-16-10.2-19.6c-0.5-1.2-0.5-3,0.3-4.1c1.1-1.4,2.6-3.1,1.6-4.8
					c-0.9-1.5-3.1-1.3-3.6-0.2c-1.3,2.7-2.9,3.5-3.1,0c-0.4-5.8-3.8-7.2-5.4-7.5c-1.1-0.2-1.8-0.6-2.4-1l0,0
					c-2.1-1.8-0.9-5.2-0.4-6.4c2.6-5.9,9.6-6.8,18.1-5c12.1,2.6,15.9,20.2,18.9,22.3c3,2.1,5.7-2.2,13.7,1.6
					c9.4,4.4,8.2,9.3,11.5,11.1c2.9,1.5,8.4,0.3,15,1.2C819.5,363.9,835.5,375.1,829.1,381.4z"/>
			</g>
		</g>
		<g>
			<g>
				<path class="st26" d="M114.5,524.9L114.5,524.9c0.1-0.1,0.2-0.1,0.2-0.1C114.6,524.8,114.5,524.9,114.5,524.9z"/>
				<path class="st2" d="M231.1,690.6c0.8-6.6,0.7-23.2,0.7-23.2l-18-0.7l0.4,25l11.8,8L231.1,690.6z"/>
				<path class="st3" d="M232.5,687.8c1.9-0.4,1,1.4,1.5,4.1c1.2,6.4,24.9,7.6,28.5,8.3c1.8,0.4,4.2,9.8-5,9.3
					c-8-0.4-33.4-1.5-42.1-2c-1.8-0.1-3.3-1.4-3.7-3.1c-1.2-6.2-0.1-15.6,2.3-15.7C217.8,687.9,224.5,689.3,232.5,687.8z"/>
				<g>
					<path class="st2" d="M20.5,619.5c6.8-0.2,23.9-2.8,23.9-2.8L43,599.4l-25.6,4.1l-6.8,12.4L20.5,619.5z"/>
					<path class="st3" d="M23.6,620.5c0.6,1.8-1.3,1.2-4.1,2.1c-6.4,2.1-4.7,24.9-5.1,28.4c-0.2,1.8-9.5,5.5-10.2-3.4
						C3.7,640,1.7,615.4,1.1,607c-0.1-1.8,1-3.4,2.7-4c6.2-2,16-2.4,16.4-0.1C21.7,606.4,21.1,613.1,23.6,620.5z"/>
				</g>
				<path class="st4" d="M235.3,679.1c-16.8,6.6-27.9,2-27.9,2c-4.2-11.5,7.7-87.2,1.7-98.2c-4.6-8.6-16.9-21.7-28.7-33.3
					c-13.7-13.4-26.8-24.8-27.1-25.1l0,0c4.1,23,4.5,51.1,2.2,68.8c-4,31-120.9,30.3-120.9,30.3c-8.5-11.2-11.7-22.9-10.1-25.2
					c15.7-6.8,89.6-8.4,92.2-18c3.7-14-2.2-39.1-8.1-59.6c-3.4-11.8-6.8-22.1-8.4-27.8c-0.3-1.1-0.5-2-0.7-2.7
					c-0.7-3.4,0.9-7.4,1.3-12.4c0.3-4,17.6-10.4,28.7-4.5c23.2,12.3,36.1-4,36.1-4c31.5,37.2,69.3,77,75.3,97
					C245.2,580.1,235.1,674.2,235.3,679.1z"/>
				<path class="st4" d="M25.6,606.1c0.8,4.1,3.5,10.2,9,17.5L25.6,606.1z"/>
				<path class="st4" d="M181.9,587.6"/>
				<path class="st27" d="M130.6,486.6c-1.7,11.2-15.1,28.6-22,34.1c-3.4-11.8-6.8-22.1-8.4-27.8c0-0.2,0-0.4,0.1-0.6L130.6,486.6z"
					/>
				<path class="st27" d="M180.5,549.5c-13.7-13.4-26.8-24.8-27.1-25.1l0,0l-2-11.8C151.6,512.9,170,530.4,180.5,549.5z"/>
			</g>
			<path class="st9" d="M247.4,302.9c8.1-7.9,24.1-28.1,27.9-23.9c2.1,2.2-10.8,9.6-6.6,12.1c1.6,1,8.4,7.1,3.8,11.8
				c-5.2,5.3-8.4-1.3-17,11.3C251.4,320.1,247.4,302.9,247.4,302.9z"/>
			<path class="st5" d="M125.1,369.8l14.8,1.4c0,0,14.4,1.2,11.5-1.6c-3.8-3.8-3.8-8-5.4-10.6c-1-1.7-1.7-4.1-2.2-6.6
				c-0.9-4.4-1.2-8.9-1.2-8.9l0.1-1.1l-1.7-3.1l-5.1-9c0,0-8.3,6.6-8.4,12.9C127.4,348.9,124,363.6,125.1,369.8z"/>
			<path class="st6" d="M143.8,352.3c-0.9-4.4-1.2-8.9-1.2-8.9l0.1-1.1l-1.7-3.1l-1.7-0.5c0,0-4.5,4.3-5.6,6.1
				C132.1,347.3,136.9,354.7,143.8,352.3z"/>
			<path class="st2" d="M125.2,355.1c5.9-2.5,7.9,7.4,14.1,7c3.3-0.2,2.4-1.5,3.7-3.2c0.8-1.1,1.6-2.2,3.3-0.9
				c34.6,26.6,13.9,109.4,18.6,114.3c3.8,4-20.5,17.5-37.2,15.9c-22.8-2.1-24.8-26.3-24.8-30.9c0-4.7,3.4-84.4,3.4-84.4
				S116.6,365.3,125.2,355.1z"/>
			<path class="st28" d="M259.9,312.4c-0.3,2.2-30.5,28.2-45,40.1c-4.5,3.7-37.2,29.8-42,35.4c-3.7,4.3-4.4,25.4-2.8,31.1
				c1.4,4.5,2.8,8.9,3.6,12.2c2.2,8.4,14.1,43.4,5.1,56c-5.8,8-11.5,8.1-16,5c-7.8-5.3-4.9-34.9-11.4-62.5
				c-3.1-13.1-1.2-23.5-0.3-33.7c0.1-1.6,0.2-3.1,0.3-4.7c0-0.5,0-1,0-1.5c0-0.6,0-1.3,0-1.9c0-1.1-0.1-2.1-0.2-3.2
				c-0.2-2.6-0.6-5.3-1.4-8.1c-3.6-13.3-3.6-18.6-3.6-18.6c19.4-3,49.7-16.1,56.2-21.1c2.1-1.6,7.2-5.8,13.4-10.7
				c6.1-4.9,13.1-10.7,19.1-15.5c2-1.6,3.9-3.2,5.6-4.5c1.7-1.4,3.3-2.6,4.5-3.6c1.4-1.1,2.5-1.9,3-2.2c0.3-0.2,1.1,0,2.1,0.5
				c0.1,0,0.2,0.1,0.3,0.2c3,1.6,7.7,5.5,9,9.1C259.9,310.9,260,311.6,259.9,312.4z"/>
			<path class="st28" d="M130.8,493.6c-7.3,10.2-20.1,11.9-30.6,7.3c-5.6-2.5-2.9-23.8-1.3-41.4l0,0c0.7-8,1.2-15.2,0.5-19.5
				c-0.3-2.1-0.7-4-0.9-5.6c-0.1-0.4-0.1-0.7-0.2-1l0,0c-0.3-1.7-0.6-3.2-0.9-4.6c-0.7-3.6-1.3-6.9-1.9-12.2
				c-0.2-1.3-0.3-2.7-0.5-4.3c-0.2-1.6-0.3-3.3-0.5-5.2c-0.5-5.9-0.5-13,0.2-19.4c0.3-2.9,0.8-5.6,1.4-8c0.8-2.9,1.7-5.3,3-7
				c10.8-14.9,26.1-17.6,26.1-17.6c0.6,2.7,3.7,7,5.1,15c0.4,2.2,0.6,7,1,9.4c0.6,3.8,4.7,12.6,5.3,16.8c1.2,9.1-2.2,15.4-1.7,24.5
				c0.1,1.1-1.7,9.3-1.3,18.2c0.6,14.7,4.4,19.5,4.1,28.7C137.1,485.7,136.9,485.2,130.8,493.6z"/>
			<path class="st9" d="M104.3,464.4c9,6.4,15.8,2.6,17.1,4.9c1.5,2.8-6.6,3.2-4.8,4.3c2.6,1.7,7.4,3.3,8.1,5
				c1.3,3.4-2.8,9.1-10.9,9.1s-9.8-9.4-16-14.6C91.7,467.8,104.3,464.4,104.3,464.4z"/>
			<path class="st28" d="M111.1,361.2c-22.9,8.7-57.5,59.9-54.4,72.2c3.1,12.3,36.8,43.8,41.4,43.2c4.6-0.6,14.6-7.8,14-10.4
				S81,437.2,81.3,433c0.5-6.6,30.7-40.4,30.7-40.4L111.1,361.2z"/>
			<g>
				<path class="st14" d="M138.5,366.1c-0.5-0.5-8.9,9.9-17.8,12.3c-2.5,0.7-5,1-7.6,0.6c-7.5-0.9-21.7-3.2-21.7-3.2
					s7.2-7.5,11.6-9.4c6.3,3.2,6.8,5,10.7,5.2c2.9,0.2,5.8-0.1,8.5-0.7c5.1-1.1,9.7-3.4,13.3-5.4c1.8-1,2.4-3,4.3-2.7
					C142.3,363.1,139.2,366.7,138.5,366.1z"/>
				<path class="st15" d="M142.8,364c0.1-1.1-0.3-2.9-2.6-3.2c-1.7-0.2-2,0.4-3.7,1.4c-5.1,2.9-12.5,6.3-20.3,5.7
					c-7.9-0.5-23.4-13.4-35.3-13s-17.3,9.7-34.3,9.4c-16.9-0.3-33.2-10.2-38.2-10.2s-8.2,0.5-8.4,2.4c-0.3,1.9,1.5,5.4,4.7,7.3
					c3.1,1.9,32.7,9.1,40.8,9.5c13.3,0.6,26.7-8.8,35.1-8.1c8.5,0.7,25,8.4,34.9,9.6c11,1.3,22.4-9.4,23-8.8s1.2,1.2,2.7,1.1
					C142.2,366.9,142.7,365,142.8,364z"/>
			</g>
			<path class="st29" d="M98.5,434.4c-0.1-0.4-0.1-0.7-0.2-1l0,0c-0.3-1.7-0.6-3.2-0.9-4.6c-0.7-3.6-1.3-6.9-1.9-12.2
				c-0.2-1.3-0.3-2.7-0.5-4.3l9.3-11.4C104.4,400.9,101.4,425.3,98.5,434.4z"/>
			<g>
				<path class="st5" d="M141.5,319.2c3.1,4.4,13.6,10.3,10.2,12.1c-3.4,1.9,6.6,9.3,3.1,11.4c-8.5,5.1-21.4,5.6-24.7,2.3
					c-3.4-3.3-9.1-14.5-9.1-14.5L141.5,319.2z"/>
				<path class="st3" d="M136,329.2c1.7-2.6,2.5-1.2,3.9-3.1s-3.3-2.5-0.1-5.1c3.2-2.5,4.8-4.4,2.6-8.3c-1.4-2.4-4.9-3.8-7.8-1.4
					c-1.8,1.6-3.5-2.1-7.7,0c-3.4,1.6-3,4.3-5.5,7c-1.3,1.5-6.5,2.1-8.1,5.6c-3,6.5,3.7,6.6,1.8,12.8c-2.3,7.3,14.5,9.9,16.5,9.3
					c0.7-0.2,1.7-2.5-1.2-4c-1.5-0.8-3.7-3.3-3.2-4.2c0.8-1.7,1.7-5.8,4.6-2.6c2,2.2,5.9,11.7,7.1,12c3.2,0.7,18.2-2.9,16.6-6.2
					c-2-4.1-11,5.5-12.7,1.1c-1.3-3.3,9.7-5.4,9.2-8.3c-0.6-3.4-10.9,7.1-13.1,4.8C135.9,335.9,135,330.6,136,329.2z"/>
			</g>
		</g>
	</g>
	<path class="st30" d="M804.2,192.7c-4.2,3.8-7.9,14.2-9.7,19.8c-5.9-1.7-13.2-3.2-23-4.9c1.5-5.7,4.7-14.9,11-23.6
		C790.5,186.7,797.7,189.7,804.2,192.7z"/>
	<path class="st30" d="M158.1,121.1c-2.4,2.2-4.5,8-5.5,11.2c-3.4-0.9-7.5-1.8-13-2.8c0.8-3.2,2.6-8.4,6.2-13.3
		C150.3,117.6,154.4,119.3,158.1,121.1z"/>
	<path class="st2" d="M837.8,108c-4.8,1.2-10.7,5.2-14,7.7c-8.3-2.2-14.2-3.9-20.2-5.4c2.7-2.3,7.4-5.6,14.3-8.6
		c8.6,2.7,15.2,5,19.7,6.2C837.6,107.9,837.7,108,837.8,108z"/>
	<path class="st2" d="M668.9,158.6c-0.1,0-0.2,0-0.3,0c-3.9,0.2-8.4,9.1-10.9,14.8c-5.8-0.9-12.2-2.4-18.7-4.7
		c1.6-4.3,4.5-10.7,9.5-16.7C655.6,155,662.3,157.1,668.9,158.6z"/>
	<path class="st2" d="M248.4,147.3c-6,4.8-9.1,9.4-10.7,12.6c-11.8-0.8-22.1-0.8-30.9-0.5c4-3.9,10.3-10,15.3-13.1
		C231.2,146.1,240.2,146.4,248.4,147.3C248.4,147.2,248.4,147.2,248.4,147.3z"/>
	<path class="st30" d="M701.5,222.5c-5.4-15.6,13.5-23.7,13.5-23.7l3.1,8.4L701.5,222.5z"/>
	<path class="st30" d="M189.3,278.9c-5.4-15.6,13.5-23.7,13.5-23.7l3.1,8.4L189.3,278.9z"/>
	<path class="st30" d="M278.6,100c16.2-3.3,21.7,16.6,21.7,16.6l-8.8,2L278.6,100z"/>
	<path class="st30" d="M388.8,77.4c-12.4-24.4-35-24.4-35-24.4l5.7-14.2c0,0,36.5,8.1,35.5,19.3S388.8,77.4,388.8,77.4z"/>
	<path class="st2" d="M744.6,137.1c-20.3,4.6-24.5,21.2-24.5,21.2l-9.4-6.8c0,0,12.8-25.3,20.9-22.5S744.6,137.1,744.6,137.1z"/>
	<path class="st30" d="M376.1,391.5c-2.7-11.5,17-20.3,17-20.3s5.2,8.8,5.6,10.2c0.5,1.4-17.2,14.9-15.1,21S376.1,391.5,376.1,391.5
		z"/>
	<path class="st30" d="M71.4,211.4c-2.7-11.5,17-20.3,17-20.3s5.2,8.8,5.6,10.2c0.5,1.4-17.2,14.9-15.1,21
		C80.9,228.4,71.4,211.4,71.4,211.4z"/>
	<path class="st30" d="M648.8,84.8c-2.7-11.5,17-20.3,17-20.3s5.2,8.8,5.6,10.2s-17.2,14.9-15.1,21
		C658.3,101.8,648.8,84.8,648.8,84.8z"/>
	<path class="st2" d="M319,428.4c-8.7-11.5-8.2-17.6,0-19.7c8.2-2,0.1,2.7,7.5,7.5c7.5,4.7,8.1,4.1,3.4,8.8
		C325.2,429.7,319,428.4,319,428.4z"/>
	<path class="st2" d="M790.4,316.6c-12.6-7.2-14.5-13-7.7-18.1s1.1,2.5,9.9,3.9c8.7,1.4,9.1,0.6,6.6,6.8
		C796.6,315.4,790.4,316.6,790.4,316.6z"/>
	<path class="st2" d="M846.2,221.7c-8.7-11.5-8.2-17.6,0-19.7c8.2-2,0.1,2.7,7.5,7.5c7.5,4.7,8.1,4.1,3.4,8.8
		C852.4,223,846.2,221.7,846.2,221.7z"/>
	<path class="st2" d="M137.2,233.5c-1.8-21.7,1.6-18.3,4.3-14.9c2.7,3.4,9.8,5.4,2.7,10.2C137.2,233.5,137.2,233.5,137.2,233.5z"/>
	<path class="st30" d="M899.3,158.1c0.3-8.8-0.1-19-6.7-17c-6.6,2,1.4-21,1.4-21s15.1,7.5,15.8,19
		C910.4,150.6,899.3,158.1,899.3,158.1z"/>
	<path class="st2" d="M86,144.4c-4.9-2.9-10.8-5.8-11.7-1.4c-0.9,4.4-11.5-7.3-11.5-7.3s8.9-6.3,15.7-3.1
		C85.2,135.7,86,144.4,86,144.4z"/>
	<path class="st30" d="M610.8,325.2c-4.7,1-9.6,1.1-14.4-1.1c-1-0.4-1.9-1.1-2.7-2c10.8-1.5,10.3-8,10.8-16.4
		c0.4,1.5,1.1,2.6,2.3,3.4c2.4,1.4,5.3,0.9,8.5-0.3C615.9,315.5,613.4,321.2,610.8,325.2z"/>
	<path class="st2" d="M630.8,264.4c-4.1-3-8.3-5.2-12.5-5.4c-1-0.1-2.1,0.1-3.3,0.4c1.2-4.1,2.5-10.1,2.8-13.7c2-0.1,4,0.2,6,1.1
		c3,1.3,6.7,3.8,10.3,6.6C634.5,257.6,632.6,261.7,630.8,264.4z"/>
</g>
</svg>
