<svg width="650" height="587" version="1.1" id="Layer_1" xmlns="http://www.w3.org/2000/svg" xmlns:xlink="http://www.w3.org/1999/xlink" x="0px" y="0px" viewBox="0 0 828.1 748.2" style="enable-background:new 0 0 828.1 748.2;" xml:space="preserve">
<style type="text/css">
	.st0{fill:#0D1B3E;}
	.st1{fill:#78ADD3;}
	.st2{fill:#FFFFFF;}
	.st3{fill:#1F1F39;}
	.st4{fill:#3B3B4C;}
	.st5{fill:#EFAEA6;}
	.st6{opacity:0.14;fill:#1F1F39;enable-background:new    ;}
	.st7{opacity:0.57;fill:#1F1F39;enable-background:new    ;}
	.st8{fill:#201B2C;}
	.st9{fill:#EEADA5;}
	.st10{fill:#54353A;}
	.st11{fill:#775155;}
	.st12{opacity:0.28;fill:#1F1F39;enable-background:new    ;}
	.st13{fill:#0771A5;}
	.st14{opacity:0.18;fill:#1F1F39;enable-background:new    ;}
	.st15{fill:#F4AD00;}
	.st16{opacity:0.2;fill:#0267A4;enable-background:new    ;}
	.st17{opacity:0.67;}
	.st18{opacity:0.22;fill:#E56E1F;enable-background:new    ;}
	.st19{opacity:0.1;fill:#32323F;enable-background:new    ;}
	.st20{fill:#F5B1B4;}
	.st21{fill:#0067A7;}
	.st22{fill:#333344;}
	.st23{opacity:0.28;fill:#070716;enable-background:new    ;}
	.st24{fill:#603A3E;}
	.st25{opacity:0.17;fill:#070716;enable-background:new    ;}
	.st26{fill:#2E2E49;}
	.st27{opacity:0.46;fill:#1F1F39;enable-background:new    ;}
	.st28{opacity:0.62;fill:#1F1F39;enable-background:new    ;}
	.st29{fill:#0267A4;}
	.st30{opacity:0.3;fill:#1F1F39;enable-background:new    ;}
	.st31{fill:#E84E19;}
</style>
<g>
	<g>
		<path class="st0" d="M376.3,729.6"/>
		<path class="st1" d="M390.8,740.6"/>
		<path class="st2" d="M351.2,726.4c-0.3-6.1,0.8-21.3,0.8-21.3l16,0.2l-1.9,22.9l-10.9,6.8L351.2,726.4z"/>
		<path class="st3" d="M350,723.8c-1.7-0.4-1,1.2-1.6,3.7c-1.4,5.8-22.6,5.9-25.8,6.4c-1.6,0.3-4.3,8.8,3.9,8.8
			c7.1,0,29.7,0.1,37.5,0c1.6,0,3-1.1,3.4-2.7c1.4-5.6,1.1-14.3-1.1-14.5C363.1,724.5,357,725.5,350,723.8z"/>
		<g>
			<path class="st2" d="M508,712.8c-4.8-3.7-15.7-14.5-15.7-14.5l10.5-12.1l16.2,16.3l-1.9,12.7L508,712.8z"/>
			<path class="st3" d="M505.3,712c-1.4,1,0.3,1.5,1.8,3.6c3.5,4.9-10.2,21-11.8,23.8c-0.9,1.4,3.9,9,9.2,2.8
				c4.6-5.4,19.3-22.6,24.3-28.5c1-1.2,1.1-3,0.2-4.3c-3.3-4.7-10.2-10.1-11.7-8.6C514.2,702.5,511.1,707.8,505.3,712z"/>
		</g>
		<path class="st4" d="M500.8,708.9c0,0-51.2-42.2-66.1-75.5c-9.6-25.6-12.2-54.5-17.2-78.8c0,0-22.8,55.2-30.5,74.1
			c-7.7,18.8-13.7,87.3-14.1,91.4c-0.4,4.1-24.2-2.3-23.7-5.1s11.2-81.2,13-94.4c1.8-13.3,22.2-105.1,31.3-130.6l10,2.6
			c0,0,50.4,7.2,51,10.8c0.3,1.8,0.5,3.7,0.7,5.6c0,0.1,0,0.1,0,0.2c1.1,9.4,1.6,20.7,1.9,32.5c0.8,33.9-0.8,72,0.5,82.1
			c1.8,14.4,49.2,57.4,58.3,69.6C517.6,693.9,512.2,701.7,500.8,708.9z"/>
		<g>
			<path class="st5" d="M426.4,403l14-0.5c1.6-6,8.6-19.2,9-24.8c0.4-6.2-0.2-6-0.2-6l-10.4,3.2l-4.9,1.5c0,0-0.1,2.5-2.1,6.3
				c-1.4,2.6-3.7,5.9-7.6,9.4C421.3,394.7,426.4,403,426.4,403z"/>
			<path class="st6" d="M433.8,376.4c0,0-0.4,3.1-2.4,6.9c7.2,5.7,13.5,0.7,12.1-2.1c-0.9-1.8-4.8-6.3-4.8-6.3L433.8,376.4z"/>
			<g>
				<path class="st5" d="M442.7,353.1c-3.7,3.6-14.4,7.5-11.7,9.8s-7.8,7.7-5.1,10.2c6.6,6.1,18.2,8.5,21.9,6s11.2-12.2,11.2-12.2
					L442.7,353.1z"/>
				<path class="st3" d="M446.5,362.9c-2.4-1.6-2.9-1.1-3.8-3.2c-0.9-2,3.5-1.9,1.1-4.7c-2.4-2.9-5.4-5.7-2.9-9.2
					c3.6-5,7.1-0.8,9.2,2c1.3,1.8,4.8-1.5,8,1.5c2.5,2.3,0.9,3.6,3,5.8c1.3,1.3,5.9,1.4,6.7,4.9c1.4,6.5-5.3,7.5-4.8,13.6
					c0.6,7.2-15.5,7.7-15.7,5.8c-0.2-2.2,5-4.7,4.6-6.6c-0.6-3-2.2-1.6-5.1-1.5c-3,0.1-6.2-2.4-1.6-3.7
					C449.8,366.1,448.7,364.4,446.5,362.9z"/>
			</g>
		</g>
		<path class="st7" d="M409.1,572.7c4.8-10.5,8.3-18.1,8.3-18.1c-1.4-7.3-2.4-15.9-2.4-15.9S410.1,560.1,409.1,572.7z"/>
		<g>
			<path class="st8" d="M518.3,548.8l-14,0.7c-2.2,0.1-3.8,2.7-3.6,5.7l0.4,8.5c0,0,0,0.1,0.1,0.1l2.6-0.1c0,0,0.1,0,0.1-0.1l-0.3-6
				c-0.1-2.3,1.1-4.2,2.7-4.3l10.4-0.5c1.6-0.1,3,1.7,3.1,4l0.3,6c0,0,0,0.1,0.1,0.1l2.6-0.1c0,0,0.1,0,0.1-0.1l-0.4-8.5
				C522.4,551,520.5,548.7,518.3,548.8z"/>
			<path class="st9" d="M507.1,534.7C507.1,534.7,507.1,534.8,507.1,534.7c-0.4,3.2-1.3,2.4-2.4,6.5s-4.5,9.9-2.4,10.5
				s3.7-1.9,4.8-2.4c1-0.5-1.3,1.9,0,3.9s6.6,3,9,1.4s4-4.8,4.1-8.9c0.1-4.1-2-9.6-2.4-11.4C517.4,532.6,507.9,534.6,507.1,534.7z"
				/>
			<path class="st8" d="M504.4,549.5c-2.2,0.1-3.8,2.7-3.6,5.7l0.4,8.5c0,0,0,0.1,0.1,0.1l2.6-0.1c0,0,0.1,0,0.1-0.1l-0.3-6
				c-0.1-2.3,1.1-4.2,2.7-4.3l0,0l0.9-3.8c0,0,0-0.1-0.1-0.1L504.4,549.5z"/>
			<g>
				<path class="st10" d="M468.9,568.8l1.8,39.3c0.1,2.4,2.1,4.2,4.5,4.1h0.1l70.2-2.3c7.9-0.4,7.6-6,7.5-8.3l-0.6-37.2
					c-0.1-2.3-3.2-8.3-9.5-8l-62.5,2.8l-2.4,0.2C472.8,559.6,468.6,563.6,468.9,568.8z"/>
				<path class="st11" d="M468.9,568.8l1.8,39.3c0.1,2.4,2.1,4.2,4.5,4.1l0,0c0,0,0.1,0,0.1-0.1c0.7-2.4,1-6.1,0.4-11.8
					c-1.6-14,1.7-30,4.7-41c0,0,0-0.1-0.1-0.1l-2.3,0.2C472.8,559.6,468.6,563.6,468.9,568.8z"/>
			</g>
		</g>
		<path class="st9" d="M394.4,286.1c0,0,0.6-6.7,0.2-12.1c-0.3-4.1,5.3-11.8,4.8-13.5c-0.7-2.1-3.9-1.2-4.9-0.7
			c-1,0.6,0.3-5.1-1.1-6.9c-2-2.7-10.1-2.8-11.7,0c-1.5,2.5-1.2,6.9-1,11s0.8,13.1,1.1,17.7C382,283.4,393.6,286.3,394.4,286.1z"/>
		<path class="st12" d="M457,541.6c-7.4-5.4-23.4-14.7-28.5-32.5l26.6-0.2c0,0.1,0,0.1,0,0.2C456.2,518.5,456.7,529.8,457,541.6z"/>
		<path class="st2" d="M447.4,389.4c-5.1-2.7-9,3.4-13.4,2.6c-2.7-0.5-2-2.9-2.9-4.5c-0.6-1-2.1-0.7-4.3-1.1
			c-5.6-0.9-33.3,107.9-33.3,107.9s14.2,8.1,25.5,10.6c11.2,2.5,30.1,2.8,30.7-1.2s6.9-106,6.9-106S452.4,392.2,447.4,389.4z"/>
		<path class="st13" d="M521.7,533.1C521.7,533.1,521.6,533.1,521.7,533.1c-2.1,1.5-11.6,1.6-17.7,1.5c0,0-0.1,0-0.1-0.1
			c-0.5-4.7-0.4-20.9-4.8-44.2c-4.3-16.4-27.1-41-29.2-43v0.1c0,0.2-0.1,0.5-0.2,0.9l0,0c0,0.1,0,0.2-0.1,0.2l0,0l0,0
			c0,0.1-0.1,0.2-0.1,0.4c-0.1,0.2-0.1,0.3-0.2,0.5c-0.3,0.9-0.8,1.9-1.3,3.1c-0.1,0.2-0.2,0.5-0.3,0.7c-1.3,2.8-2.9,6.2-4.3,9.6
			c-0.1,0.3-0.3,0.7-0.4,1c-0.2,0.5-0.4,1-0.6,1.5s-0.4,1-0.6,1.5c0,0,0,0,0,0.1c-0.4,1.1-0.8,2.7-1.1,4.6c-0.1,0.7-0.2,1.4-0.3,2.2
			c-1.7,12.5,7.4,39.1,8.2,46.1c1,8.7-8,9.1-11.5,6.3c-2.9-2.3-19.4-6-25.8-12.5c-6.5-6.5-1.9-18.6-0.1-27.1
			c1.9-8.6-4.2-27,4.5-42.6c10.8-19.6,10.6-48.2,12.7-54.1c0,0,21.6,14.5,30.1,26c12.9,17.4,37.4,56.1,39.1,70.4
			C519.3,501.4,524.6,524.6,521.7,533.1z"/>
		<path class="st12" d="M469.9,447.4l-0.3,1.1l0,0l0,0c0,0.1-0.1,0.2-0.1,0.4c-0.1,0.2-0.1,0.3-0.2,0.5c-0.3,0.9-0.8,1.9-1.3,3.1
			c-0.1,0.2-0.2,0.5-0.3,0.7c-1.3,2.8-2.9,6.2-4.3,9.6c-0.1,0.3-0.3,0.7-0.4,1c-0.2,0.5-0.4,1-0.6,1.5s-0.4,1-0.6,1.5c0,0,0,0,0,0.1
			c-0.4,1.1-0.8,2.7-1.1,4.6c-0.6-10.7-0.9-27.6,0.6-31.9C461.4,439.6,467.4,443.9,469.9,447.4z"/>
		<path class="st13" d="M426.9,386.6c-17.1-21.4-24.7-41.2-27.1-53.4c-2.4-12.1-1.4-55-1.4-59c0-2.4-19.1-2.1-18.9,1.7
			c0.2,2.5-2,44.7,0.9,61c2.4,13.5,15.1,56.8,18.9,64.8c4.2,8.9-1.3,51.1-4,58.1c-2.8,7-12.1,41.7-5.8,47c5.9,4.9,21.6,8,24.6,4.4
			c2.8-3.3-9.1-42.6-5-61.3c4.1-18.6,4-23,10.5-43.2"/>
		<g>
			<path class="st14" d="M435.1,393.8c0.5-0.4,6,10.3,13.3,13.8c2,1,4.2,1.6,6.5,1.8c6.6,0.4,17.2-0.5,17.2-0.5s-5-5-8.5-7.3
				c-6,1.9-4.6,1.5-8,1.1c-2.6-0.3-5-1-7.2-2c-4.2-1.8-7.8-4.5-10.6-6.9c-1.4-1.2-1.6-3-3.3-3.1
				C432.3,390.5,434.4,394.2,435.1,393.8z"/>
			<path class="st15" d="M431.7,391.6c0.1-1,0.8-2.7,3-2.7c1.7,0.1,1.8,0.7,3.2,1.9c4.2,3.6,10.4,8.1,17.8,8.9s24.2-8.9,35.2-6.5
				c10.9,2.4,14.3,12.2,30,14.7c15.8,2.5,32.7-4.2,37.4-3.4s7.5,1.8,7.4,3.7s-2.4,4.9-5.7,6.2s-32.1,3.3-39.7,2.2
				c-12.4-1.7-23.1-12.9-31.1-13.6s-24.8,3.9-34.2,3.4c-10.5-0.6-19-12.8-19.7-12.3s-1.3,0.9-2.7,0.6
				C431.8,394.5,431.7,392.6,431.7,391.6z"/>
		</g>
		<path class="st9" d="M394.3,263.7c2.3-3.9,0.6-2.8,1-5.2c0.2-1.7,1.1-2.2,2.9-0.7c1.7,1.4,1.6,2.4,1.3,3.4
			c-0.3,1.3-1.2,3.2-1.2,3.2L394.3,263.7z"/>
		<path class="st9" d="M393.7,253.9c0.7,1.1,0.5,3.8,0.5,4.3c0,0.8,0.1,2.7-2.3,3.3c-2.7,0.6-9.2,1-10.2-0.3c-1-1.2-1.4-5.5-0.7-6.9
			C381.8,252.9,393.7,253.9,393.7,253.9z"/>
		<g>
			<path class="st16" d="M333.2,137.2c15.3-3.8,16.9-10.9,18-32.9c3.8,20.4,7.1,27.9,23.1,29c-13.2,7.1-17.9,9.6-18.3,33.7
				C350.3,143.1,347.1,141.2,333.2,137.2z"/>
			<path class="st5" d="M475.2,204.8c0,0-3.3-2.7-4.5-2.6c-1.3,0.1-2.4,1.3,0.3,4.6C473.8,210.2,475.2,204.8,475.2,204.8z"/>
			<g>
				<path class="st15" d="M439.3,33.9c15.2-14.3,19.2,6.6,19.9,21.3c0.2,3.6-1.6,7.4-4.9,9.8c-10.2,7.6-32.2,24.3-32.2,24.3
					C419.6,84.4,423.7,48.6,439.3,33.9z M591.5,187c0.2-0.3,0.4-0.8,0.5-1.1c0.2-0.4,0.4-0.8,0.3-1.2c3.2-13.1-23.7-22.5-39.6-29.8
					c-1.8-0.8-1.7-3.1-0.1-4.6c3.1-2.8,4.9-8,4.1-12c-0.1-0.7-0.3-1.2-0.5-1.8c0-0.2-0.1-0.2-0.2-0.3c-0.2-0.2-0.1-0.2-0.2-0.3
					c-0.2-0.3-0.5-0.8-0.7-1.1c0-0.1,0-0.1-0.1,0c-0.5-0.6-0.9-1.2-1.3-1.9c-0.9-1.2-1.7-2.5-2.8-3.9c-0.1-0.3-0.5-0.6-0.6-0.9
					c-0.4-0.5-0.8-1-1.2-1.7c-0.2-0.3-0.5-0.6-0.7-1c-0.2-0.3-0.5-0.6-0.8-1c-0.5-0.6-0.9-1.3-1.5-2l-0.3-0.4
					c-19.1-26.1-54.7-71.5-56.8-74.3c-2.1-3.1-6.9-3.3-10.4-0.6c-21.5,15,0.1-74.5-40.9-38.4c-19.3,17.6-29.4,62.5-29.2,80.9
					c0.1,5.9-2.3,12-6.7,17c-15.8,18-19.3,42.7-7.2,60.4c0.3,0.4,0.6,1,0.7,1.4c0.3,0.5,0.3,1,0.4,1.6c0.2,1.2,0.1,2.2-0.4,3.4
					c-1.2,3.7-4.8,5.5-10.1,9c-0.2,0.2-0.4,0.3-0.7,0.4c-0.2,0.2-0.3,0.1-0.4,0.2c-0.2,0.2-0.3,0.2-0.5,0.3
					c-0.6,0.2-1.2,0.5-1.8,0.6c-0.2,0-0.4,0.1-0.7,0.1c-1.2,0.2-2.1,0.2-3.2,0c-0.2-0.1-0.5-0.1-0.6-0.1l0,0c-0.2-0.1-0.4,0-0.5-0.2
					c-0.3,0-0.4-0.2-0.8-0.4c-0.7-0.2-1.2-0.6-1.7-1c-13.9-11.4-35.7-12.6-53.5,1c-45.4,41-31.2,3.9-66.9,7.8
					c-59.2,26.2,124.2,218.7,99.5,104.1c-1.4-6.5,1.7-13.9,7.7-18.5c10.2-7.8,19.3-14.6,19.5-15c2.8-2,5-4.2,7.2-6.6
					c5.9-6.7,9.7-14.6,11-22.5c1.2-7.2,0.3-14.6-2.7-21c-0.1-0.2-0.2-0.4-0.4-0.7c-0.2-0.3-0.5-0.8-0.7-1.1
					c-0.2-0.2-0.2-0.3-0.3-0.5c-0.2-0.2-0.1-0.4-0.3-0.5c-0.1-0.4-0.2-0.7-0.2-1c-0.1-0.3-0.1-0.8,0-1.1c0.2-1.9,1.1-3.7,2.8-5.1
					c2.6-2.3,6.2-4.7,9-6.8c0.5-0.4,1-0.7,1.5-1c0.2-0.2,0.3-0.1,0.4-0.3c0.3-0.1,0.7-0.3,0.9-0.4c2-0.9,4.2-0.5,5.6,0.8h0.1
					c13.7,18.1,39.8,22.1,62.4,11c5.4-2.7,11.4-3.3,16.6-1.5c17.2,5.4,64.2,8.2,86.5-5.8c0.3-0.2,0.8-0.5,1.1-0.7
					C586.9,193.1,590,190,591.5,187z M556.4,188.8c-18.7,11.5-51.8,3.9-57.9,2.3c-1.7-0.8,18.5-15.2,29.8-23.4
					c4.9-3.6,11.1-4.7,16.3-2.7C557.8,170.1,573,179,556.4,188.8z"/>
				<g class="st17">
					<g>
						<path class="st2" d="M405.5,144.6c-0.2-0.2-0.3-0.4-0.4-0.7c-1-2.9-1.3-6.1-0.4-9.9c0.3-1.9,2.3-3.3,4.4-3.3
							c2,0.1,3.2,1.8,2.9,3.8c-0.5,2.6-0.4,4.5,0.1,6.1c0.7,1.8-0.3,3.8-2.1,4.8C408.1,146.1,406.2,145.7,405.5,144.6z"/>
					</g>
					<g>
						<path class="st2" d="M410.6,124.2c-0.7-1-0.8-2.5,0-3.8c2.8-4.3,6-8.1,8.7-10.2L464.5,76c1.7-1.3,4-1.2,5.1,0.3
							c1,1.5,0.5,3.6-1,4.9l-45.3,34.2c-1.5,1.1-4,3.8-6.6,7.8c-1.2,1.8-3.4,2.5-5.1,1.7C411.2,124.8,410.7,124.5,410.6,124.2z"/>
					</g>
				</g>
				<path class="st18" d="M591.5,187c0.2-0.3,0.4-0.8,0.5-1.1c0.2-0.4,0.4-0.8,0.3-1.2c3.2-13.1-23.7-22.5-39.6-29.8
					c-1.8-0.8-1.7-3.1-0.1-4.6c3.1-2.8,4.9-8,4.1-12c-0.1-0.7-0.3-1.2-0.5-1.8c0-0.2-0.1-0.2-0.2-0.3c-0.2-0.2-0.1-0.2-0.2-0.3
					c-0.2-0.3-0.5-0.8-0.7-1.1c0-0.1,0-0.1-0.1,0c-0.5-0.6-0.8-1.2-1.3-1.9c-0.9-1.2-1.7-2.5-2.8-3.9c-0.1-0.3-0.5-0.6-0.6-0.9
					c-0.4-0.5-0.8-1-1.2-1.7c-0.2-0.3-0.5-0.6-0.7-1c-0.2-0.3-0.5-0.6-0.8-1c-0.5-0.6-0.9-1.3-1.5-2c-0.2-0.2-0.2-0.3-0.3-0.4l0,0
					c-41.4,32.7-102.8,88.2-151.2,44.9c0.3,0.4,0.6,1,0.7,1.4c0.3,0.5,0.3,1,0.4,1.6c0.2,1.2,0.1,2.2-0.4,3.4
					c-1.2,3.7-4.8,5.5-10.1,9c-0.2,0.1-0.4,0.3-0.7,0.4c-0.2,0.2-0.3,0.1-0.4,0.2c-0.2,0.2-0.3,0.2-0.5,0.3
					c-0.6,0.2-1.2,0.5-1.8,0.6c-0.2,0-0.4,0.1-0.7,0.1c-1.2,0.2-2.1,0.2-3.2,0c-0.2-0.1-0.5-0.1-0.6-0.1l0,0c-0.2,0-0.4,0-0.5-0.2
					c-0.3,0-0.4-0.2-0.8-0.4c0,0,0,0-0.1,0c3.4,7.2,6.7,13,7.7,14.2c1.5,2,5,7.2,12.4,13.9c-0.1-0.2-0.2-0.4-0.4-0.7
					c-0.2-0.3-0.5-0.8-0.6-1.2c-0.2-0.2-0.2-0.3-0.2-0.4c-0.2-0.2-0.1-0.4-0.3-0.5c-0.1-0.4-0.2-0.7-0.2-1c-0.1-0.3-0.1-0.8,0-1.1
					c0.2-1.9,1.1-3.7,2.8-5.1c2.6-2.3,6.2-4.7,9-6.8c0.5-0.4,1-0.7,1.5-1c0.2-0.2,0.3-0.1,0.4-0.3c0.3-0.1,0.7-0.3,0.9-0.4
					c2-0.9,4.2-0.5,5.6,0.8h0.1c13.7,18.1,39.8,22.1,62.4,11c5.4-2.7,11.4-3.3,16.6-1.5c17.2,5.4,64.2,8.2,86.5-5.8
					c0.3-0.2,0.8-0.5,1.1-0.7C586.9,193.1,590,190,591.5,187z M556.4,188.8c-18.7,11.5-51.8,3.9-57.9,2.3
					c-1.7-0.8,18.5-15.2,29.8-23.4c4.9-3.6,11.1-4.7,16.3-2.7C557.8,170.1,573,179,556.4,188.8z"/>
				<path class="st18" d="M249.3,193.8c50.1,61.2,85.6,71.8,138.9,60.9c0,0.1,0,0.1-0.2,0.3l0,0c-2.1,2.3-4.5,4.5-7.2,6.6
					c-0.2,0.4-9.3,7.3-19.5,15c-6,4.6-9.2,12-7.7,18.5C377.6,406.1,206,228.7,249.3,193.8z"/>
			</g>
			<path class="st2" d="M506.5,119.7c7.4-1.7,8.2-4.8,8.7-14.3c1.8,8.8,3.3,12,11,12.4c-6.4,3.1-8.7,4.2-9,14.5
				C514.8,122.2,513.3,121.3,506.5,119.7z"/>
			<path class="st2" d="M307.9,268.9c10.4-2.5,11.6-7.5,12.3-22.5c2.5,14,4.8,19.3,15.8,19.9c-9.1,5-12.3,6.5-12.5,23
				C319.9,272.9,317.5,271.7,307.9,268.9z"/>
		</g>
		<path class="st19" d="M-20.5,741.9c0,2.9,200.6,6.3,453.6,6.3s396.1-2.4,396.1-5.3s-143.1-5.3-396.1-5.3S-20.5,739-20.5,741.9z"/>
		<g>
			<path class="st20" d="M609.7,332c-4.9-19.6,5.3-15.9,4-19.4c-1.2-3.2-8,3.8-4.7-3.1c4.6-9.5-6.6-6.4-9.2-3.3
				c-2.7,3.2-2.7,10.2-1,17.7c1.3,5.8,0.3,9.3,0.3,9.3L609.7,332z"/>
			<path class="st5" d="M680.2,603.1c4.3,9.6,9.2,19.5,13.2,29.5c12.2,30.3,90,10.4,93.8,11.6c8.1,2.6,9,5,10.9,7.5l7.2,8.1l6.7-13
				l-9.5-13.9c0,0-84.4-1.9-88.3-10c-1.6-3.2-4.4-13.4-7.3-24.7c-0.8-3.3-1.7-6.7-2.5-10C700.9,574,698,561,698,561
				c-0.9-2.1-4-21.6-3.7-23.9c0.9-6.1-10.5-35.8-23.3-27c-21,14.5-18.1,32.9-18.1,32.9s11.4,24.9,25.1,55.2L680.2,603.1z"/>
			<path class="st21" d="M792.5,631.6c2.5-1.8,8.6-5.4,15.4-1.4c6.6,4.3,14.9,5,14.9,5l-0.4,2.5c0,0-11.2-2.1-13.6-0.2
				c1.4,4.1,11.7,20.4,10.8,23.8c-1.3,5.2-5.4,11.8-7.1,13.1c-2,1.5-6.9,4.6-6.6,0.4c0.6-8.1-2.3-16.6-2.3-16.6s0-0.5,0.5-0.5
				c1.1,0.1,3,0.2,2.8-4.5c-0.3-6.2-9.6-16.4-14.4-19.9C791.9,632.9,791.9,632.1,792.5,631.6z"/>
			<g>
				<path class="st5" d="M673.2,518.3l-8,5.6c-0.3,0.2-0.5,0.5-0.7,0.8c-2.5,3.7-16.9,21.8-22.8,30.6c0,0.1-5.7-9.9-10-4.4
					c-5.3,6.8-16.4,45.3-17.4,58.8c-1.2,17.4-6.1,94.6-7.4,99.2c-1.3,4.6-4.1,7.7-11.1,11.6c-0.1,0-0.1,0.1-0.2,0.1l0,0
					c-2.9,1.3-1.9,5.7,1.3,5.6l13.3-0.6c0.3,0,0.6-0.1,0.9-0.2l7.5-3c0.9-0.4,1.6-1.2,1.8-2.2c0,0,19-105.2,20.8-112.5
					s27.7-57.2,27.7-57.2c0.5-0.7,13.4,7.5,14.2,7.5c3,0,10.7-1.7,18.5-18.6c2.4-5.1-4-13.6-6.1-16.3c-0.4-0.5-1-0.9-1.6-1
					l-18.6-4.2C674.7,517.7,673.9,517.9,673.2,518.3z"/>
				<path class="st21" d="M611.7,731.8c-2.7,0-11.3,1.5-17.6,2.3c-2.9,0.3-5.3,0.5-6.6,0.3c-0.1,0-0.2,0-0.4-0.1
					c-3.6-0.9-11.2-3.8-12.2-5.7c-1-2,1.4-5.5,5.4-6.6c1.7-0.5,4.4-0.8,7.1-0.9c2.7-0.2,5.3-0.2,6.4-0.2c0.4,0,0.6,0,0.6,0
					s0.5,0.1,0.3,0.6c-0.4,1-1,2.7,3.3,3.9c5.7,1.6,17.6-3.7,22.1-7c0.5-0.4,1.2-0.1,1.5,0.5c0.9,2.7,2.4,9.5-3.1,14.5
					c-5.8,4.6-8.8,11.9-8.8,11.9l-2.1-1.1C607.6,744,612.7,734.6,611.7,731.8z"/>
			</g>
			<path class="st22" d="M710.1,601.8c-2.2,5.1-32.4,2.9-49.6-3.2c-15.8-5.6-41.9-0.5-45.3-9.2c-2.2-5.7,11.8-49.3,27.1-92.4
				c19.8,7.4,51.2-8.9,51.2-8.9s0.2,0.3,0.5,0.9c1.9,3.4,8.7,15.9,12.7,27.7c1.6,4.7,2.8,9.3,3,13.2c0.6,11.2-6.7,33.8-5.8,49.7
				C704.6,590.1,712.6,596.1,710.1,601.8z"/>
			<path class="st2" d="M657.9,402.9l-8.8,4.8L637,456.1c0,0,4.1,29.5,10.8,39.9c8.7,13.5,36.9-1.3,35.7-4.4
				c-11-28.4-15-88.6-15-88.6L657.9,402.9z"/>
			<path class="st23" d="M706.8,516.8c-16.5,8.7-39.6-3-39.6-3L691,492l3.1-2.8C696,492.5,702.8,505,706.8,516.8z"/>
			<g>
				<path class="st8" d="M759.2,503.2c-0.5-0.9-0.8-1.8-0.8-2.6c0-0.7,0.1-1.3,0.4-1.9c0.2-0.3,0.4-0.6,0.7-0.8l1.9-1.6h0.1l0,0
					l0.2-0.2l7.8-6.6l0.1-0.1c0.4-0.3,0.8-0.5,1.3-0.6l0,0c1.5-0.3,3.5,0.6,4.9,2.2l2,2.4l3.2,3.8l-2,1.7l-3.2-3.8l-0.5-0.5
					c-1-1.2-2.4-1.9-3.6-1.7l0,0c-0.1,0-0.2,0-0.3,0.1c-0.3,0.1-0.5,0.2-0.7,0.4l-7,5.9l0,0l-0.6,0.5c-1.2,1-1,3.1,0.4,4.8l0.4,0.5
					l0,0l3.3,3.9l0,0l-2,1.7l-3.3-3.9l-1.9-2.3c-0.1-0.1-0.2-0.3-0.3-0.4C759.5,503.6,759.3,503.4,759.2,503.2z"/>
				<path class="st9" d="M753,485.2c1.5,2.6,1.6,2.5,3.1,6.2s2.3,9,4.2,8.2s0.6-2.5,1-3.5c0.5-1,0.1,2.2,2.2,3
					c2.1,0.8,6.7-1.5,7.6-4.1c0.9-2.6-1.2-4.7-3.4-7.8c-2.3-3.1-4.5-3.8-6.9-8.5L753,485.2z"/>
				<path class="st8" d="M759.2,503.2c-0.5-0.9-0.8-1.8-0.8-2.6l0,0c0-0.7,0.1-1.4,0.4-1.9c0.2-0.3,0.4-0.6,0.7-0.8l1.9-1.6h0.1l0,0
					l0,0l0.1-0.1l0.3,0.8l0,0l0,0l0,0l0,0l0,0l0.5,1.1l0,0l0.6,1.5c-1.2,1-1,3.1,0.4,4.8l0,0l0.4,0.5l0,0l3.3,3.9l-2,1.7l-3.3-3.9
					l-1.9-2.3c-0.1-0.1-0.2-0.3-0.3-0.4C759.5,503.6,759.3,503.4,759.2,503.2z"/>
				<g>
					<path class="st24" d="M743.7,532.7l23.8,28.6c1.4,1.7,3.9,1.9,5.6,0.5l0.1-0.1l51.6-41.8c5.8-4.8,2.3-8.8,0.9-10.5L804,481.7
						c-1.4-1.7-7.2-4.5-11.7-0.6l-45.4,37.7l-1.7,1.4C741.4,523.5,740.5,528.8,743.7,532.7z"/>
					<path class="st11" d="M743.7,532.7l23.8,28.6c1.4,1.7,3.9,1.9,5.6,0.5l0.1-0.1c-0.8-2.2-2.7-5.2-6.5-9.2
						c-9.2-9.7-15.9-23.7-19.9-33.6l-1.7,1.4C741.4,523.5,740.5,528.8,743.7,532.7z"/>
				</g>
			</g>
			<path class="st21" d="M737.8,444.2c6.4,10.3,26.6,36.8,26.6,36.8c-4.5,8.1-10.6,9.5-10.7,9.6c-0.1-0.6-25.9-34.5-28.3-38.2
				c-3.4-5.3-31.1-14.7-34.2-12c-3.7,3.2-7.3,19.3-5.7,30.4c0.3,2.3,0.9,4.5,1.8,6.2c4.9,9.8,10.2,10.7,9.6,16
				c-0.6,5.3-27.2,23.5-29.8,20.8s-2.2-38.1-5-46.2c-2.5-7.1-8.4-20.1-4-30.2c3.2-7.5,7.3-23,9.2-30.6c0-0.1,0.1-0.2,0.1-0.3
				c0.6-2.5,1-4.1,1-4.1c2,0.6,4.4,1.5,6.9,2.8c5.6,2.8,12.3,6.9,18.9,11.8C711.7,429.6,733.1,436.5,737.8,444.2z"/>
			<path class="st21" d="M642.1,447.5c-3,9.9,8.3,33.2,9.6,51.5c0,0.2,0,0.5,0.1,0.7c0.2,3.1,0,6-0.7,8.7c-1,3.6-6.1,6.2-9.6,6.6
				c-2.4,0.3-4.1-0.8-3.8-3.3c3.2-23.1-8.7-42-9.1-67.4c-0.1-5.7,3.4-13.9,2.3-17.8c-1.5-5.5-18.5-43.2-23.6-54.1
				c-3.7-8-10.6-35-10.3-46.5c0.1-4,13.4-3.5,13.5-1c0.2,9.4,7,35,9.9,42.4c3.6,9.1,20.2,33.7,30,39.8c0.3,0.2-0.8,2.1-1.1,5.6
				c-0.2,2.7-0.8,6-1.1,9.7C647.3,433.1,645.7,435.8,642.1,447.5z"/>
			<path class="st25" d="M685.6,470.8c-2.5-4.1-6.1-10.3-6.3-12.7c-0.3-3.7,5-13.1,12-17.7C687.6,443.7,684,459.8,685.6,470.8z"/>
			<path class="st25" d="M694.2,416.8c-16.2-0.2-23.1-3.3-26.9-10.1c-0.1-0.1-0.1-0.2-0.2-0.3h0.2l7.9-1.4
				C680.9,407.8,687.5,412,694.2,416.8z"/>
			<g>
				<path class="st20" d="M645.5,370.2c-1.1,3.6,0.9,5.6-1.5,8.9c-1.9,2.6-3.8,3.1-3.1,4.2c0.7,1.2,3.1,0.6,2.9,1.9
					c-0.2,1.2-1.2,2.1,0.2,2.7c0.9,0.3,1.9,0.3,0.8,1c-0.4,0.3-1.3-0.1-0.5,1.4s-1.6,6.3,0.9,7.1c1.2,0.4,5.5-2.4,7.7-0.6
					c2,1.6-2.1,7.8-2.7,10.6c-0.6,2.8,0.2,17.9,1.7,17.5c3.9-1,4.7-10,14.7-17.5c11.9-9-2.3-25.1-2.3-25.1l-3.7-9.5L645.5,370.2z"/>
				<path class="st26" d="M743.1,414.8c-4.1,4-23.1-12.1-34.6,0.1c-4.6,4.9-9.3-0.4-14.3-1.6c-0.8-0.2-1.7-0.3-2.5-0.2
					c-3.2,0.3-5,1.2-7.8,1.2l0,0c-0.7,0-1.4,0-2.2-0.2c-0.7-0.1-1.4-0.2-2.2-0.4c-1.5-0.3-3.2-0.8-5.3-1.6c-2.2-0.8-4.1-2.1-5.8-3.7
					l0,0c-0.1-0.1-0.1-0.1-0.2-0.2c-5.9-6-8.6-16-10.2-19.6c-0.5-1.2-0.5-3,0.3-4.1c1.1-1.4,2.6-3.1,1.6-4.8
					c-0.9-1.5-3.1-1.3-3.6-0.2c-1.3,2.7-2.9,3.5-3.1,0c-0.4-5.8-3.8-7.2-5.4-7.5c-1.1-0.2-1.8-0.6-2.4-1l0,0
					c-2.1-1.8-0.9-5.2-0.4-6.4c2.6-5.9,9.6-6.8,18.1-5c12.1,2.6,15.9,20.2,18.9,22.3c3,2.1,5.7-2.2,13.7,1.6
					c9.4,4.4,8.2,9.3,11.5,11.1c2.9,1.5,8.4,0.3,15,1.2C733.5,397.3,749.5,408.5,743.1,414.8z"/>
			</g>
		</g>
		<g>
			<g>
				<path class="st27" d="M114.5,558.3L114.5,558.3c0.1-0.1,0.2-0.1,0.2-0.1C114.6,558.2,114.5,558.3,114.5,558.3z"/>
				<path class="st2" d="M231.1,724c0.8-6.6,0.7-23.2,0.7-23.2l-18-0.7l0.4,25l11.8,8L231.1,724z"/>
				<path class="st3" d="M232.5,721.2c1.9-0.4,1,1.4,1.5,4.1c1.2,6.4,24.9,7.6,28.5,8.3c1.8,0.4,4.2,9.8-5,9.3
					c-8-0.4-33.4-1.5-42.1-2c-1.8-0.1-3.3-1.4-3.7-3.1c-1.2-6.2-0.1-15.6,2.3-15.7C217.8,721.3,224.5,722.7,232.5,721.2z"/>
				<g>
					<path class="st2" d="M20.5,652.9c6.8-0.2,23.9-2.8,23.9-2.8L43,632.8l-25.6,4.1l-6.8,12.4L20.5,652.9z"/>
					<path class="st3" d="M23.6,653.9c0.6,1.8-1.3,1.2-4.1,2.1c-6.4,2.1-4.7,24.9-5.1,28.4c-0.2,1.8-9.5,5.5-10.2-3.4
						c-0.5-7.6-2.5-32.2-3.1-40.6c-0.1-1.8,1-3.4,2.7-4c6.2-2,16-2.4,16.4-0.1C21.7,639.8,21.1,646.5,23.6,653.9z"/>
				</g>
				<path class="st4" d="M235.3,712.5c-16.8,6.6-27.9,2-27.9,2c-4.2-11.5,7.7-87.2,1.7-98.2c-4.6-8.6-16.9-21.7-28.7-33.3
					c-13.7-13.4-26.8-24.8-27.1-25.1l0,0c4.1,23,4.5,51.1,2.2,68.8c-4,31-120.9,30.3-120.9,30.3c-8.5-11.2-11.7-22.9-10.1-25.2
					c15.7-6.8,89.6-8.4,92.2-18c3.7-14-2.2-39.1-8.1-59.6c-3.4-11.8-6.8-22.1-8.4-27.8c-0.3-1.1-0.5-2-0.7-2.7
					c-0.7-3.4,0.9-7.4,1.3-12.4c0.3-4,17.6-10.4,28.7-4.5c23.2,12.3,36.1-4,36.1-4c31.5,37.2,69.3,77,75.3,97
					C245.2,613.5,235.1,707.6,235.3,712.5z"/>
				<path class="st4" d="M25.6,639.5c0.8,4.1,3.5,10.2,9,17.5L25.6,639.5z"/>
				<path class="st4" d="M181.9,621"/>
				<path class="st28" d="M130.6,520c-1.7,11.2-15.1,28.6-22,34.1c-3.4-11.8-6.8-22.1-8.4-27.8c0-0.2,0-0.4,0.1-0.6L130.6,520z"/>
				<path class="st28" d="M180.5,582.9c-13.7-13.4-26.8-24.8-27.1-25.1l0,0l-2-11.8C151.6,546.3,170,563.8,180.5,582.9z"/>
			</g>
			<path class="st9" d="M247.4,336.3c8.1-7.9,24.1-28.1,27.9-23.9c2.1,2.2-10.8,9.6-6.6,12.1c1.6,1,8.4,7.1,3.8,11.8
				c-5.2,5.3-8.4-1.3-17,11.3C251.4,353.5,247.4,336.3,247.4,336.3z"/>
			<path class="st5" d="M125.1,403.2l14.8,1.4c0,0,14.4,1.2,11.5-1.6c-3.8-3.8-3.8-8-5.4-10.6c-1-1.7-1.7-4.1-2.2-6.6
				c-0.9-4.4-1.2-8.9-1.2-8.9l0.1-1.1l-1.7-3.1l-5.1-9c0,0-8.3,6.6-8.4,12.9C127.4,382.3,124,397,125.1,403.2z"/>
			<path class="st6" d="M143.8,385.7c-0.9-4.4-1.2-8.9-1.2-8.9l0.1-1.1l-1.7-3.1l-1.7-0.5c0,0-4.5,4.3-5.6,6.1
				C132.1,380.7,136.9,388.1,143.8,385.7z"/>
			<path class="st2" d="M125.2,388.5c5.9-2.5,7.9,7.4,14.1,7c3.3-0.2,2.4-1.5,3.7-3.2c0.8-1.1,1.6-2.2,3.3-0.9
				c34.6,26.6,13.9,109.4,18.6,114.3c3.8,4-20.5,17.5-37.2,15.9c-22.8-2.1-24.8-26.3-24.8-30.9c0-4.7,3.4-84.4,3.4-84.4
				S116.6,398.7,125.2,388.5z"/>
			<path class="st29" d="M259.9,345.8c-0.3,2.2-30.5,28.2-45,40.1c-4.5,3.7-37.2,29.8-42,35.4c-3.7,4.3-4.4,25.4-2.8,31.1
				c1.4,4.5,2.8,8.9,3.6,12.2c2.2,8.4,14.1,43.4,5.1,56c-5.8,8-11.5,8.1-16,5c-7.8-5.3-4.9-34.9-11.4-62.5
				c-3.1-13.1-1.2-23.5-0.3-33.7c0.1-1.6,0.2-3.1,0.3-4.7c0-0.5,0-1,0-1.5c0-0.6,0-1.3,0-1.9c0-1.1-0.1-2.1-0.2-3.2
				c-0.2-2.6-0.6-5.3-1.4-8.1c-3.6-13.3-3.6-18.6-3.6-18.6c19.4-3,49.7-16.1,56.2-21.1c2.1-1.6,7.2-5.8,13.4-10.7
				c6.1-4.9,13.1-10.7,19.1-15.5c2-1.6,3.9-3.2,5.6-4.5c1.7-1.4,3.3-2.6,4.5-3.6c1.4-1.1,2.5-1.9,3-2.2c0.3-0.2,1.1,0,2.1,0.5
				c0.1,0,0.2,0.1,0.3,0.2c3,1.6,7.7,5.5,9,9.1C259.9,344.3,260,345,259.9,345.8z"/>
			<path class="st29" d="M130.8,527c-7.3,10.2-20.1,11.9-30.6,7.3c-5.6-2.5-2.9-23.8-1.3-41.4l0,0c0.7-8,1.2-15.2,0.5-19.5
				c-0.3-2.1-0.7-4-0.9-5.6c-0.1-0.4-0.1-0.7-0.2-1l0,0c-0.3-1.7-0.6-3.2-0.9-4.6c-0.7-3.6-1.3-6.9-1.9-12.2
				c-0.2-1.3-0.3-2.7-0.5-4.3s-0.3-3.3-0.5-5.2c-0.5-5.9-0.5-13,0.2-19.4c0.3-2.9,0.8-5.6,1.4-8c0.8-2.9,1.7-5.3,3-7
				c10.8-14.9,26.1-17.6,26.1-17.6c0.6,2.7,3.7,7,5.1,15c0.4,2.2,0.6,7,1,9.4c0.6,3.8,4.7,12.6,5.3,16.8c1.2,9.1-2.2,15.4-1.7,24.5
				c0.1,1.1-1.7,9.3-1.3,18.2c0.6,14.7,4.4,19.5,4.1,28.7C137.1,519.1,136.9,518.6,130.8,527z"/>
			<path class="st9" d="M104.3,497.8c9,6.4,15.8,2.6,17.1,4.9c1.5,2.8-6.6,3.2-4.8,4.3c2.6,1.7,7.4,3.3,8.1,5
				c1.3,3.4-2.8,9.1-10.9,9.1s-9.8-9.4-16-14.6C91.7,501.2,104.3,497.8,104.3,497.8z"/>
			<path class="st29" d="M111.1,394.6c-22.9,8.7-57.5,59.9-54.4,72.2s36.8,43.8,41.4,43.2s14.6-7.8,14-10.4s-31.1-29-30.8-33.2
				C81.8,459.8,112,426,112,426L111.1,394.6z"/>
			<g>
				<path class="st14" d="M138.5,399.5c-0.5-0.5-8.9,9.9-17.8,12.3c-2.5,0.7-5,1-7.6,0.6c-7.5-0.9-21.7-3.2-21.7-3.2
					s7.2-7.5,11.6-9.4c6.3,3.2,6.8,5,10.7,5.2c2.9,0.2,5.8-0.1,8.5-0.7c5.1-1.1,9.7-3.4,13.3-5.4c1.8-1,2.4-3,4.3-2.7
					C142.3,396.5,139.2,400.1,138.5,399.5z"/>
				<path class="st15" d="M142.8,397.4c0.1-1.1-0.3-2.9-2.6-3.2c-1.7-0.2-2,0.4-3.7,1.4c-5.1,2.9-12.5,6.3-20.3,5.7
					c-7.9-0.5-23.4-13.4-35.3-13s-17.3,9.7-34.3,9.4c-16.9-0.3-33.2-10.2-38.2-10.2S0.2,388,0,389.9c-0.3,1.9,1.5,5.4,4.7,7.3
					c3.1,1.9,32.7,9.1,40.8,9.5c13.3,0.6,26.7-8.8,35.1-8.1c8.5,0.7,25,8.4,34.9,9.6c11,1.3,22.4-9.4,23-8.8s1.2,1.2,2.7,1.1
					C142.2,400.3,142.7,398.4,142.8,397.4z"/>
			</g>
			<path class="st30" d="M98.5,467.8c-0.1-0.4-0.1-0.7-0.2-1l0,0c-0.3-1.7-0.6-3.2-0.9-4.6c-0.7-3.6-1.3-6.9-1.9-12.2
				c-0.2-1.3-0.3-2.7-0.5-4.3l9.3-11.4C104.4,434.3,101.4,458.7,98.5,467.8z"/>
			<g>
				<path class="st5" d="M141.5,352.6c3.1,4.4,13.6,10.3,10.2,12.1c-3.4,1.9,6.6,9.3,3.1,11.4c-8.5,5.1-21.4,5.6-24.7,2.3
					c-3.4-3.3-9.1-14.5-9.1-14.5L141.5,352.6z"/>
				<path class="st3" d="M131.8,368.6c1.7-2.6,6.7-7.2,8.1-9.1s-3.3-2.5-0.1-5.1c3.2-2.5,4.8-4.4,2.6-8.3c-1.4-2.4-4.9-3.8-7.8-1.4
					c-1.8,1.6-3.5-2.1-7.7,0c-3.4,1.6-3,4.3-5.5,7c-1.3,1.5-6.5,2.1-8.1,5.6c-3,6.5,3.7,6.6,1.8,12.8c-2.3,7.3,14.5,9.9,16.5,9.3
					c0.7-0.2,1.7-2.5-1.2-4c-1.5-0.8-3.7-3.3-3.2-4.2C128,369.5,128.9,365.4,131.8,368.6"/>
			</g>
		</g>
	</g>
	<path class="st31" d="M718.2,226.1c-4.2,3.8-7.9,14.2-9.7,19.8c-5.9-1.7-13.2-3.2-23-4.9c1.5-5.7,4.7-14.9,11-23.6
		C704.5,220.1,711.7,223.1,718.2,226.1z"/>
	<path class="st31" d="M158.1,154.5c-2.4,2.2-4.5,8-5.5,11.2c-3.4-0.9-7.5-1.8-13-2.8c0.8-3.2,2.6-8.4,6.2-13.3
		C150.3,151,154.4,152.7,158.1,154.5z"/>
	<path class="st16" d="M751.8,141.4c-4.8,1.2-10.7,5.2-14,7.7c-8.3-2.2-14.2-3.9-20.2-5.4c2.7-2.3,7.4-5.6,14.3-8.6
		c8.6,2.7,15.2,5,19.7,6.2C751.6,141.3,751.7,141.4,751.8,141.4z"/>
	<path class="st16" d="M582.9,192c-0.1,0-0.2,0-0.3,0c-3.9,0.2-8.4,9.1-10.9,14.8c-5.8-0.9-12.2-2.4-18.7-4.7
		c1.6-4.3,4.5-10.7,9.5-16.7C569.6,188.4,576.3,190.5,582.9,192z"/>
	<path class="st16" d="M217.9,225.9c-6,4.8-9.1,9.4-10.7,12.6c-11.8-0.8-22.1-0.8-30.9-0.5c4-3.9,10.3-10,15.3-13.1
		C200.7,224.7,209.7,225,217.9,225.9C217.9,225.8,217.9,225.8,217.9,225.9z"/>
	<path class="st31" d="M615.5,255.9c-5.4-15.6,13.5-23.7,13.5-23.7l3.1,8.4L615.5,255.9z"/>
	<path class="st31" d="M189.3,312.3c-5.4-15.6,13.5-23.7,13.5-23.7l3.1,8.4L189.3,312.3z"/>
	<path class="st31" d="M206.8,176.3c16.2-3.3,21.7,16.6,21.7,16.6l-8.8,2L206.8,176.3z"/>
	<path class="st31" d="M220.3,97.2c-12.4-24.4-35-24.4-35-24.4l5.7-14.2c0,0,36.5,8.1,35.5,19.3S220.3,97.2,220.3,97.2z"/>
	<path class="st16" d="M658.6,170.5c-20.3,4.6-24.5,21.2-24.5,21.2l-9.4-6.8c0,0,12.8-25.3,20.9-22.5S658.6,170.5,658.6,170.5z"/>
	<path class="st31" d="M290.1,424.9c-2.7-11.5,17-20.3,17-20.3s5.2,8.8,5.6,10.2c0.5,1.4-17.2,14.9-15.1,21S290.1,424.9,290.1,424.9
		z"/>
	<path class="st31" d="M71.4,244.8c-2.7-11.5,17-20.3,17-20.3s5.2,8.8,5.6,10.2c0.5,1.4-17.2,14.9-15.1,21
		C80.9,261.8,71.4,244.8,71.4,244.8z"/>
	<path class="st31" d="M562.8,118.2c-2.7-11.5,17-20.3,17-20.3s5.2,8.8,5.6,10.2s-17.2,14.9-15.1,21
		C572.3,135.2,562.8,118.2,562.8,118.2z"/>
	<path class="st16" d="M233,461.8c-8.7-11.5-8.2-17.6,0-19.7c8.2-2,0.1,2.7,7.5,7.5c7.5,4.7,8.1,4.1,3.4,8.8
		C239.2,463.1,233,461.8,233,461.8z"/>
	<path class="st16" d="M704.4,350c-12.6-7.2-14.5-13-7.7-18.1s1.1,2.5,9.9,3.9c8.7,1.4,9.1,0.6,6.6,6.8
		C710.6,348.8,704.4,350,704.4,350z"/>
	<path class="st16" d="M760.2,255.1c-8.7-11.5-8.2-17.6,0-19.7c8.2-2,0.1,2.7,7.5,7.5c7.5,4.7,8.1,4.1,3.4,8.8
		C766.4,256.4,760.2,255.1,760.2,255.1z"/>
	<path class="st16" d="M137.2,266.9c-1.8-21.7,1.6-18.3,4.3-14.9s9.8,5.4,2.7,10.2C137.2,266.9,137.2,266.9,137.2,266.9z"/>
	<path class="st31" d="M813.3,191.5c0.3-8.8-0.1-19-6.7-17c-6.6,2,1.4-21,1.4-21s15.1,7.5,15.8,19
		C824.4,184,813.3,191.5,813.3,191.5z"/>
	<path class="st16" d="M86,177.8c-4.9-2.9-10.8-5.8-11.7-1.4c-0.9,4.4-11.5-7.3-11.5-7.3s8.9-6.3,15.7-3.1
		C85.2,169.1,86,177.8,86,177.8z"/>
	<path class="st31" d="M524.8,358.6c-4.7,1-9.6,1.1-14.4-1.1c-1-0.4-1.9-1.1-2.7-2c10.8-1.5,10.3-8,10.8-16.4
		c0.4,1.5,1.1,2.6,2.3,3.4c2.4,1.4,5.3,0.9,8.5-0.3C529.9,348.9,527.4,354.6,524.8,358.6z"/>
	<path class="st16" d="M544.8,297.8c-4.1-3-8.3-5.2-12.5-5.4c-1-0.1-2.1,0.1-3.3,0.4c1.2-4.1,2.5-10.1,2.8-13.7c2-0.1,4,0.2,6,1.1
		c3,1.3,6.7,3.8,10.3,6.6C548.5,291,546.6,295.1,544.8,297.8z"/>
</g>
</svg>
