<?xml version="1.0" encoding="utf-8"?>
<!-- Generator: Adobe Illustrator 24.3.0, SVG Export Plug-In . SVG Version: 6.00 Build 0)  -->
<svg version="1.1" id="Layer_1" xmlns="http://www.w3.org/2000/svg" xmlns:xlink="http://www.w3.org/1999/xlink" x="0px" y="0px"
	 viewBox="0 0 35 35" style="enable-background:new 0 0 35 35;" xml:space="preserve">
<style type="text/css">
	.st0{fill:#FF6E00;}
</style>
<g>
	<path class="st0" d="M17.5,0C7.9,0,0,7.9,0,17.5S7.9,35,17.5,35S35,27.1,35,17.5S27.1,0,17.5,0z M17.5,32.9C9,32.9,2.1,26,2.1,17.5
		S9,2.1,17.5,2.1S32.9,9,32.9,17.5S26,32.9,17.5,32.9z"/>
	<path class="st0" d="M25.5,11.9l-9.1,9.1l-4.7-4.7c-0.4-0.4-1.1-0.4-1.5,0c-0.4,0.4-0.4,1.1,0,1.5c0,0,0,0,0,0l5.4,5.4
		c0.2,0.2,0.5,0.3,0.7,0.3s0.5-0.1,0.7-0.3l9.8-9.8c0.4-0.4,0.4-1,0-1.5C26.6,11.5,25.9,11.4,25.5,11.9
		C25.5,11.9,25.5,11.9,25.5,11.9z"/>
</g>
</svg>
